<svg xmlns="http://www.w3.org/2000/svg" xmlns:xlink="http://www.w3.org/1999/xlink" width="1280" zoomAndPan="magnify" viewBox="0 0 960 540.000001" height="720" preserveAspectRatio="xMidYMid meet" version="1.0"><path fill="#b1d153" d="M 554.710938 262.167969 C 550.664062 248.214844 536.121094 232.613281 521.726562 231.414062 C 520.378906 239.066406 522.625 246.867188 526.226562 253.765625 C 529.671875 260.667969 534.320312 266.820312 538.070312 273.71875 C 545.714844 287.972656 548.714844 304.324219 551.5625 320.230469 C 554.410156 315.878906 555.011719 310.628906 555.609375 305.527344 C 557.257812 291.125 558.757812 276.121094 554.710938 262.167969 Z M 554.710938 262.167969 " fill-opacity="1" fill-rule="nonzero"/><path fill="#538d02" d="M 283.945312 45.53125 C 277.800781 41.328125 272.402344 35.929688 265.65625 32.929688 C 260.40625 30.527344 254.5625 29.777344 248.714844 29.777344 C 226.824219 29.777344 206.285156 43.429688 194.441406 61.882812 C 206.882812 66.535156 221.578125 66.382812 234.769531 64.582031 C 247.964844 62.632812 261.007812 59.183594 274.199219 57.832031 C 286.496094 56.480469 298.789062 56.933594 311.082031 57.382812 C 301.785156 54.230469 292.191406 51.082031 283.945312 45.53125 Z M 283.945312 45.53125 " fill-opacity="1" fill-rule="nonzero"/><path fill="#b1d153" d="M 463.257812 412.496094 C 459.359375 408.59375 457.257812 403.195312 453.210938 399.59375 C 450.8125 397.492188 447.964844 396.140625 445.265625 394.792969 C 437.617188 391.042969 429.671875 387.140625 421.128906 386.390625 C 411.683594 385.492188 401.785156 391.941406 393.542969 387.289062 C 394.890625 399.59375 402.085938 409.496094 409.582031 419.097656 C 413.78125 424.496094 418.578125 429.75 424.425781 433.5 C 434.019531 439.5 446.164062 440.398438 457.410156 438.601562 C 468.652344 436.648438 479.148438 432.148438 489.492188 427.648438 C 481.996094 420.597656 470.304688 419.695312 463.257812 412.496094 Z M 463.257812 412.496094 " fill-opacity="1" fill-rule="nonzero"/><path fill="#a0c33c" d="M 486.195312 321.578125 C 481.546875 325.480469 476.75 329.230469 471.351562 331.78125 C 455.910156 338.53125 437.46875 332.382812 421.578125 337.933594 C 413.332031 340.78125 406.585938 346.484375 399.089844 350.835938 C 391.59375 355.183594 380.347656 359.835938 372.25 356.835938 C 385.59375 365.6875 401.9375 369.886719 417.679688 372.136719 C 434.46875 374.539062 452.910156 376.488281 467.304688 367.488281 C 482.148438 358.1875 488.742188 338.980469 486.195312 321.578125 Z M 486.195312 321.578125 " fill-opacity="1" fill-rule="nonzero"/><path fill="#a0c33c" d="M 305.085938 331.480469 C 302.988281 323.078125 295.488281 315.429688 288.742188 310.175781 C 291.890625 318.429688 288.144531 328.628906 283.945312 336.433594 C 279.746094 344.234375 274.351562 351.734375 272.851562 360.585938 C 272.25 363.886719 272.402344 367.335938 272.101562 370.636719 C 271.203125 384.140625 266.105469 397.644531 256.359375 407.09375 C 259.957031 407.542969 263.40625 405.445312 266.40625 403.34375 C 276.898438 396.140625 287.542969 389.089844 298.039062 381.890625 C 300.4375 380.238281 302.835938 378.589844 304.335938 376.039062 C 305.683594 373.488281 305.835938 370.636719 305.984375 367.789062 C 306.136719 363.136719 306.285156 358.335938 306.433594 353.683594 C 306.585938 346.183594 306.882812 338.683594 305.085938 331.480469 Z M 305.085938 331.480469 " fill-opacity="1" fill-rule="nonzero"/><path fill="#538d02" d="M 343.015625 248.964844 C 339.867188 242.214844 336.269531 235.464844 331.023438 230.0625 C 323.527344 222.261719 313.332031 217.761719 302.835938 215.511719 C 292.339844 213.261719 278.25 211.609375 267.453125 211.460938 C 282.597656 223.011719 287.542969 244.464844 302.535156 256.167969 C 307.785156 260.21875 314.082031 262.917969 320.226562 265.621094 C 325.324219 267.71875 330.421875 269.96875 335.519531 272.070312 C 339.71875 273.871094 344.515625 275.671875 348.863281 274.171875 C 350.0625 265.46875 346.765625 256.917969 343.015625 248.964844 Z M 343.015625 248.964844 " fill-opacity="1" fill-rule="nonzero"/><path fill="#75ac15" d="M 184.394531 20.625 C 175.25 33.527344 169.253906 51.382812 163.40625 66.082031 C 172.25 57.382812 180.949219 45.980469 189.792969 37.429688 C 192.640625 34.726562 195.488281 31.878906 197.589844 28.578125 C 202.535156 21.226562 203.585938 12.074219 204.484375 3.222656 C 195.941406 5.773438 189.644531 13.273438 184.394531 20.625 Z M 184.394531 20.625 " fill-opacity="1" fill-rule="nonzero"/><path fill="#a0c33c" d="M 648.113281 89.339844 C 636.570312 80.335938 620.976562 77.484375 606.433594 79.585938 C 603.734375 80.035156 600.585938 80.9375 599.839844 83.488281 C 602.988281 87.539062 606.585938 91.589844 609.734375 95.640625 C 612.433594 98.941406 614.980469 102.242188 618.429688 104.789062 C 624.875 109.441406 633.269531 110.640625 640.769531 113.34375 C 649.164062 116.34375 656.808594 121.445312 662.804688 128.195312 C 666.40625 113.941406 659.65625 98.339844 648.113281 89.339844 Z M 648.113281 89.339844 " fill-opacity="1" fill-rule="nonzero"/><path fill="#b1d153" d="M 655.609375 0.222656 C 650.664062 9.523438 643.316406 17.476562 634.472656 23.328125 C 627.722656 27.675781 620.226562 30.828125 613.332031 35.027344 C 606.433594 39.230469 600.136719 45.082031 597.589844 52.730469 C 595.339844 59.632812 594.890625 71.035156 589.042969 75.386719 C 608.535156 77.484375 629.074219 67.585938 640.46875 51.53125 C 645.117188 44.929688 648.265625 37.578125 651.261719 30.078125 C 655.160156 20.625 658.609375 9.972656 655.609375 0.222656 Z M 655.609375 0.222656 " fill-opacity="1" fill-rule="nonzero"/><path fill="#a0c33c" d="M 488.445312 244.015625 C 486.34375 224.363281 473.152344 207.558594 457.558594 195.558594 C 453.960938 192.707031 449.011719 189.40625 444.515625 189.105469 C 444.066406 199.15625 441.816406 210.257812 441.367188 220.3125 C 441.21875 223.613281 441.066406 227.0625 442.117188 230.0625 C 443.015625 232.761719 444.816406 235.164062 446.765625 237.265625 C 452.761719 244.164062 459.808594 250.316406 465.65625 257.367188 C 471.652344 264.417969 476.597656 272.671875 477.5 281.820312 C 485.894531 271.320312 489.941406 257.367188 488.445312 244.015625 Z M 488.445312 244.015625 " fill-opacity="1" fill-rule="nonzero"/><path fill="#a0c33c" d="M 556.660156 175.152344 C 545.714844 175.003906 534.472656 173.351562 524.125 177.105469 C 518.878906 179.054688 514.230469 182.355469 508.984375 184.605469 C 501.9375 187.90625 490.394531 191.804688 482.597656 193.15625 C 480.648438 196.757812 527.722656 206.808594 545.117188 201.859375 C 562.507812 196.90625 578.25 185.65625 588.59375 170.800781 C 578.398438 173.804688 567.453125 175.304688 556.660156 175.152344 Z M 556.660156 175.152344 " fill-opacity="1" fill-rule="nonzero"/><path fill="#b1d153" d="M 620.378906 224.960938 C 615.878906 222.261719 611.980469 218.8125 607.035156 217.011719 C 601.1875 214.761719 594.742188 215.359375 588.445312 215.960938 C 570.003906 217.761719 551.5625 220.160156 532.972656 221.960938 C 541.21875 231.261719 550.0625 239.214844 561.757812 243.714844 C 569.554688 246.714844 577.949219 247.015625 586.34375 246.714844 C 605.386719 245.964844 624.425781 241.316406 640.316406 230.964844 C 633.421875 230.664062 626.375 228.710938 620.378906 224.960938 Z M 620.378906 224.960938 " fill-opacity="1" fill-rule="nonzero"/><path fill="#538d02" d="M 196.539062 246.867188 C 196.238281 238.765625 195.191406 230.511719 191.292969 223.460938 C 188.292969 218.0625 183.796875 213.710938 179.449219 209.507812 C 174.652344 204.859375 169.851562 200.058594 165.054688 195.40625 C 171.503906 222.863281 170.003906 246.117188 167.902344 274.171875 C 167.304688 281.222656 166.40625 288.574219 162.058594 294.125 C 170.453125 286.773438 178.699219 279.121094 186.792969 271.320312 C 189.644531 268.621094 192.339844 265.917969 194.140625 262.46875 C 196.539062 257.667969 196.6875 252.117188 196.539062 246.867188 Z M 196.539062 246.867188 " fill-opacity="1" fill-rule="nonzero"/><path fill="#75ac15" d="M 191.890625 184.753906 C 181.847656 182.804688 171.351562 185.203125 164.304688 177.855469 C 163.855469 187.753906 172.703125 195.40625 181.996094 198.558594 C 191.441406 201.707031 201.785156 200.507812 211.53125 198.40625 C 219.027344 196.90625 226.523438 194.808594 232.523438 190.15625 C 218.726562 189.253906 205.234375 187.457031 191.890625 184.753906 Z M 191.890625 184.753906 " fill-opacity="1" fill-rule="nonzero"/><path fill="#75ac15" d="M 211.980469 295.324219 C 201.488281 296.074219 190.992188 298.175781 180.347656 298.476562 C 158.308594 299.375 136.121094 295.925781 117.828125 283.621094 C 114.378906 293.675781 119.628906 304.476562 126.375 312.726562 C 133.121094 320.828125 142.417969 326.378906 151.710938 331.332031 C 159.507812 335.382812 167.605469 339.28125 176.300781 340.933594 C 192.941406 343.78125 210.183594 337.632812 223.527344 327.28125 C 236.871094 316.929688 246.914062 302.976562 255.761719 288.722656 C 242.417969 295.472656 226.824219 294.125 211.980469 295.324219 Z M 211.980469 295.324219 " fill-opacity="1" fill-rule="nonzero"/><path fill="#a0c33c" d="M 141.21875 354.734375 C 136.871094 354.433594 132.523438 355.335938 128.171875 355.933594 C 119.027344 356.984375 111.382812 358.636719 102.535156 355.785156 C 114.082031 363.886719 126.824219 371.089844 140.765625 372.136719 C 147.515625 372.589844 154.410156 371.386719 161.007812 369.886719 C 167.605469 368.539062 174.050781 367.039062 180.648438 365.535156 C 167.152344 368.386719 155.011719 355.636719 141.21875 354.734375 Z M 141.21875 354.734375 " fill-opacity="1" fill-rule="nonzero"/><path fill="#a0c33c" d="M 108.832031 408.746094 C 104.933594 415.644531 99.386719 419.996094 92.339844 423.746094 C 89.644531 425.097656 86.945312 426.148438 84.246094 427.648438 C 70.902344 434.847656 61.308594 450.300781 46.164062 451.652344 C 53.359375 454.050781 61.007812 454.503906 68.652344 454.804688 C 77.050781 455.101562 85.894531 455.253906 93.390625 451.351562 C 100.4375 447.75 105.535156 440.699219 108.234375 433.199219 C 110.78125 425.546875 109.734375 416.695312 108.832031 408.746094 Z M 108.832031 408.746094 " fill-opacity="1" fill-rule="nonzero"/><path fill="#b1d153" d="M 154.710938 470.707031 C 152.3125 478.957031 143.765625 484.507812 137.019531 489.757812 C 125.925781 498.460938 115.28125 507.761719 105.386719 517.8125 C 112.882812 519.015625 120.527344 519.613281 128.171875 519.914062 C 131.472656 520.0625 134.769531 519.914062 138.070312 519.464844 C 148.261719 517.664062 157.257812 510.3125 161.007812 500.710938 C 164.605469 490.960938 161.15625 478.808594 154.710938 470.707031 Z M 154.710938 470.707031 " fill-opacity="1" fill-rule="nonzero"/><path fill="#b1d153" d="M 196.238281 477.605469 C 184.394531 476.105469 172.402344 476.855469 164.003906 468.605469 C 163.105469 473.707031 166.105469 478.808594 169.703125 482.558594 C 178.847656 492.160156 192.640625 496.960938 205.984375 496.058594 C 219.328125 495.160156 231.921875 488.859375 241.515625 479.707031 C 226.375 480.15625 211.230469 479.558594 196.238281 477.605469 Z M 196.238281 477.605469 " fill-opacity="1" fill-rule="nonzero"/><path fill="#75ac15" d="M 328.023438 131.796875 C 322.625 126.246094 316.480469 121.445312 310.332031 116.644531 C 307.933594 114.691406 305.535156 112.890625 303.136719 110.941406 C 307.632812 123.695312 312.882812 137.648438 317.378906 150.398438 C 319.328125 155.949219 321.277344 161.5 324.425781 166.453125 C 330.722656 176.652344 341.21875 183.554688 351.5625 189.554688 C 351.414062 168.101562 342.867188 147.097656 328.023438 131.796875 Z M 328.023438 131.796875 " fill-opacity="1" fill-rule="nonzero"/><path fill="#195a01" d="M 621.878906 90.839844 C 617.230469 88.136719 610.632812 85.136719 603.734375 82.738281 C 598.9375 81.085938 593.992188 79.886719 589.644531 78.984375 L 612.730469 64.285156 L 582.597656 74.035156 C 582.597656 74.035156 582.445312 74.035156 582.445312 74.035156 C 580.046875 75.085938 577.5 75.984375 575.101562 77.035156 C 574.949219 77.035156 574.800781 77.035156 574.652344 77.035156 C 573.601562 77.035156 572.703125 77.636719 571.953125 78.234375 C 530.722656 94.4375 487.542969 103.890625 443.316406 106.140625 C 390.84375 108.839844 337.769531 101.488281 286.195312 93.390625 C 285.746094 93.238281 285.445312 93.238281 284.996094 93.238281 C 280.949219 92.636719 276.898438 92.039062 272.851562 91.289062 C 233.871094 85.136719 193.691406 78.984375 153.8125 76.734375 C 153.8125 76.734375 153.660156 76.734375 153.660156 76.734375 C 153.511719 76.734375 153.511719 76.734375 153.359375 76.734375 C 152.3125 76.734375 151.261719 76.585938 150.363281 76.585938 C 151.410156 75.835938 152.613281 74.933594 153.960938 74.183594 C 155.609375 73.136719 157.410156 71.933594 159.507812 71.035156 C 160.40625 70.585938 161.605469 69.984375 162.507812 69.535156 C 163.707031 69.085938 164.90625 68.632812 165.953125 68.335938 C 170.601562 66.835938 176 65.933594 181.546875 65.183594 C 186.945312 64.433594 192.640625 63.832031 197.738281 62.785156 C 202.835938 61.734375 207.632812 60.382812 211.683594 59.183594 C 215.730469 57.832031 218.878906 56.632812 221.128906 55.730469 C 223.375 54.683594 224.574219 54.230469 224.574219 54.230469 C 224.574219 54.230469 223.226562 54.683594 220.976562 55.433594 C 218.726562 56.183594 215.28125 57.082031 211.230469 58.132812 C 207.183594 59.03125 202.386719 59.933594 197.289062 60.382812 C 192.191406 60.984375 186.644531 61.132812 181.097656 61.28125 C 175.550781 61.582031 169.851562 61.882812 164.457031 63.234375 C 163.105469 63.535156 161.757812 63.984375 160.558594 64.285156 C 159.207031 64.734375 158.007812 65.183594 156.808594 65.632812 C 154.410156 66.535156 152.3125 67.585938 150.363281 68.632812 C 146.464844 70.734375 143.464844 72.535156 141.515625 73.886719 C 139.417969 75.234375 138.21875 75.984375 138.21875 75.984375 C 138.070312 75.984375 138.070312 76.136719 137.917969 76.136719 C 137.769531 76.285156 137.769531 76.285156 137.617188 76.4375 C 125.773438 76.136719 113.78125 75.984375 102.085938 75.835938 C 91.441406 75.835938 80.347656 75.6875 69.554688 75.535156 C 50.664062 75.085938 31.472656 73.734375 12.730469 71.785156 C 11.382812 71.335938 10.03125 70.882812 8.535156 70.585938 C 7.484375 70.285156 6.285156 70.585938 5.386719 71.035156 C 3.285156 70.882812 1.335938 72.386719 1.1875 74.636719 C 0.886719 76.886719 2.535156 78.835938 4.785156 79.136719 C 6.882812 79.4375 8.984375 79.585938 11.082031 79.734375 C 33.570312 87.539062 47.964844 109.140625 54.710938 121.894531 C 68.804688 148.296875 75.101562 177.402344 77.648438 207.257812 C 77.648438 207.257812 77.648438 207.257812 77.648438 207.410156 C 77.648438 207.410156 77.648438 207.710938 77.796875 208.308594 C 79.296875 227.363281 79.449219 246.566406 79 265.46875 L 78.847656 269.070312 C 78.25 292.324219 77.648438 317.527344 82.894531 340.78125 C 82.894531 341.53125 83.046875 342.28125 83.347656 342.882812 C 86.496094 355.785156 91.441406 367.9375 99.539062 378.890625 C 100.738281 380.539062 101.9375 382.039062 103.285156 383.691406 C 104.933594 385.789062 106.585938 387.890625 108.082031 389.992188 C 108.082031 390.292969 108.082031 390.890625 108.082031 391.792969 C 108.082031 393.140625 108.234375 394.640625 108.082031 396.894531 C 108.082031 401.09375 107.484375 406.644531 106.433594 412.34375 C 105.234375 417.894531 103.4375 423.449219 101.9375 427.496094 C 100.289062 431.546875 99.089844 434.25 99.089844 434.25 C 99.089844 434.25 100.738281 431.847656 102.984375 428.097656 C 105.234375 424.347656 108.082031 419.097656 110.183594 413.546875 C 111.53125 409.945312 112.730469 406.34375 113.632812 403.042969 C 113.78125 403.492188 113.929688 403.792969 113.929688 404.242188 C 114.679688 406.644531 115.28125 409.195312 116.328125 411.746094 C 118.578125 417.746094 122.027344 422.996094 125.476562 427.949219 C 133.421875 439.5 142.265625 450.753906 151.5625 461.253906 C 151.5625 461.554688 151.410156 461.855469 151.410156 462.152344 C 151.410156 462.152344 151.5625 465.15625 151.863281 469.65625 C 152.011719 471.90625 152.011719 474.457031 151.863281 477.15625 C 151.710938 478.507812 151.5625 479.855469 151.410156 481.359375 C 151.261719 482.707031 150.960938 484.359375 150.511719 485.707031 C 149.011719 491.257812 146.015625 496.660156 143.464844 500.410156 C 140.917969 504.160156 138.816406 506.410156 138.816406 506.410156 C 138.816406 506.410156 141.21875 504.460938 144.367188 501.011719 C 147.515625 497.558594 151.410156 492.757812 153.960938 486.757812 C 156.507812 480.90625 157.859375 474.605469 158.457031 469.804688 C 158.457031 469.503906 158.609375 469.207031 158.609375 468.753906 C 158.910156 469.207031 159.359375 469.503906 159.65625 469.957031 C 161.605469 472.054688 163.707031 474.007812 165.953125 475.804688 C 165.953125 475.804688 166.554688 476.257812 167.605469 477.007812 C 168.652344 477.757812 170.453125 478.808594 172.550781 480.007812 C 176.75 482.257812 182.445312 484.65625 188.59375 486.007812 C 194.589844 487.507812 200.738281 487.808594 205.234375 487.507812 C 209.734375 487.058594 212.730469 486.757812 212.730469 486.757812 C 212.730469 486.757812 209.734375 486.457031 205.386719 486.160156 C 201.039062 485.558594 195.191406 484.359375 189.941406 482.109375 C 184.546875 479.855469 179.746094 476.855469 176.449219 474.15625 C 174.800781 472.804688 173.601562 471.753906 172.550781 470.855469 C 171.652344 470.105469 171.203125 469.65625 171.203125 469.503906 C 169.253906 467.855469 167.453125 466.203125 165.65625 464.40625 C 153.511719 451.351562 142.265625 437.398438 132.222656 422.847656 C 129.074219 418.347656 125.925781 413.546875 123.976562 408.445312 C 123.226562 406.34375 122.476562 404.09375 121.875 401.691406 C 120.976562 398.542969 120.078125 395.242188 118.578125 391.941406 C 116.328125 386.839844 112.882812 382.640625 109.582031 378.4375 C 108.382812 376.9375 107.183594 375.4375 106.132812 373.9375 C 101.636719 367.9375 98.339844 361.335938 95.640625 354.585938 C 97.140625 355.484375 98.789062 356.234375 100.4375 356.984375 C 105.386719 359.085938 110.484375 360.285156 114.230469 361.035156 C 117.980469 361.785156 120.527344 362.234375 120.527344 362.234375 C 120.527344 362.234375 118.128906 361.335938 114.53125 359.835938 C 111.082031 358.335938 106.433594 356.234375 102.238281 353.382812 C 98.1875 350.683594 94.742188 347.234375 93.089844 344.382812 C 92.640625 343.632812 92.339844 343.03125 92.042969 342.433594 C 91.742188 341.984375 91.59375 341.382812 91.292969 340.78125 C 91.140625 340.484375 90.992188 340.183594 90.992188 339.882812 C 85.746094 317.679688 86.34375 293.074219 86.945312 269.070312 L 87.09375 265.46875 C 87.242188 257.96875 87.394531 250.464844 87.394531 242.816406 C 89.34375 247.164062 91.742188 251.816406 94.441406 256.316406 C 99.386719 264.570312 105.535156 272.671875 112.28125 280.320312 C 115.578125 284.074219 119.328125 287.671875 123.078125 290.972656 C 126.824219 294.273438 130.722656 297.273438 134.621094 299.976562 C 142.417969 305.375 150.363281 309.425781 157.410156 312.425781 C 164.457031 315.277344 170.453125 317.226562 174.652344 318.277344 C 178.847656 319.328125 181.398438 319.777344 181.398438 319.777344 C 181.398438 319.777344 179 319.179688 174.800781 317.828125 C 170.601562 316.628906 164.753906 314.527344 157.859375 311.226562 C 151.113281 307.925781 143.617188 303.574219 136.121094 297.875 C 132.371094 295.023438 128.773438 291.875 125.175781 288.574219 C 121.726562 285.121094 118.429688 281.671875 115.128906 277.621094 C 108.984375 269.96875 103.285156 261.71875 99.089844 253.617188 C 94.742188 245.515625 91.59375 237.414062 89.644531 230.511719 C 88.59375 227.0625 87.992188 223.761719 87.394531 220.910156 C 86.945312 218.210938 86.644531 215.960938 86.34375 214.011719 C 84.246094 180.855469 77.796875 147.847656 61.90625 118.144531 C 53.511719 102.539062 43.167969 90.089844 31.472656 81.6875 C 44.066406 82.585938 56.808594 83.335938 69.402344 83.636719 C 70.300781 83.636719 71.351562 83.636719 72.25 83.636719 C 96.988281 94.289062 119.328125 116.191406 135.21875 145.449219 C 140.167969 154.597656 144.816406 164.203125 149.464844 173.503906 C 152.460938 179.652344 155.460938 185.804688 158.609375 191.957031 C 158.609375 191.957031 159.957031 194.054688 162.058594 197.355469 C 164.15625 200.65625 167.152344 204.859375 170.152344 209.058594 C 176.148438 217.460938 182.894531 225.113281 182.894531 225.113281 C 182.894531 225.113281 177.800781 216.261719 173.601562 206.957031 C 171.503906 202.308594 169.554688 197.65625 168.054688 194.207031 C 166.703125 190.757812 165.65625 188.355469 165.65625 188.355469 C 165.65625 188.355469 165.65625 188.207031 165.503906 188.207031 C 163.855469 184.90625 162.207031 181.605469 160.558594 178.304688 C 169.851562 185.957031 180.046875 191.65625 180.046875 191.65625 C 180.046875 191.65625 170.300781 183.855469 162.507812 174.554688 C 158.609375 169.902344 155.011719 165.101562 152.761719 161.199219 C 151.5625 159.25 150.8125 157.75 150.0625 156.550781 C 149.464844 155.351562 149.011719 154.597656 149.011719 154.597656 C 146.765625 150.25 144.515625 145.898438 142.265625 141.546875 C 128.625 116.492188 110.484375 96.539062 90.09375 83.9375 C 94.140625 83.9375 98.1875 83.9375 102.238281 83.9375 C 116.480469 83.9375 131.171875 84.085938 145.714844 84.6875 C 148.113281 84.835938 150.511719 84.988281 152.910156 85.136719 C 187.695312 90.839844 210.933594 125.945312 219.179688 140.796875 C 231.621094 163 238.667969 188.207031 245.414062 212.511719 C 246.613281 217.011719 247.964844 221.511719 249.164062 226.011719 C 256.210938 250.464844 264.90625 275.371094 280.199219 295.175781 C 280.199219 295.324219 280.347656 295.324219 280.347656 295.472656 C 280.648438 295.925781 280.796875 296.226562 281.246094 296.976562 C 281.996094 298.324219 282.894531 300.425781 283.796875 303.277344 C 284.246094 304.625 284.695312 306.277344 285.144531 307.777344 C 285.59375 309.425781 286.042969 311.226562 286.644531 313.027344 C 287.242188 314.828125 287.542969 316.628906 287.992188 318.578125 C 288.445312 320.527344 288.742188 322.480469 289.191406 324.429688 C 290.542969 332.230469 291.292969 340.332031 291.59375 346.332031 C 291.890625 352.335938 292.191406 356.386719 292.191406 356.386719 C 292.191406 356.386719 292.492188 352.335938 292.792969 346.332031 C 293.089844 340.332031 293.539062 332.230469 293.089844 323.980469 C 292.941406 321.878906 292.792969 319.929688 292.640625 317.828125 C 292.492188 315.878906 292.191406 313.777344 291.890625 311.976562 C 291.59375 310.476562 291.441406 308.976562 291.140625 307.476562 C 291.292969 307.625 291.59375 307.925781 291.742188 308.078125 C 297.890625 313.777344 304.933594 318.730469 311.53125 323.53125 C 313.929688 325.179688 316.328125 326.980469 318.726562 328.628906 C 325.175781 333.28125 331.320312 338.382812 337.46875 343.632812 C 338.21875 344.234375 338.816406 344.832031 339.566406 345.433594 C 346.914062 351.734375 354.109375 358.335938 361.15625 364.785156 C 369.703125 372.589844 378.546875 380.691406 387.695312 388.191406 C 387.695312 388.191406 390.84375 390.441406 395.640625 393.890625 C 400.4375 397.191406 407.035156 401.542969 413.929688 405.445312 C 420.675781 409.34375 427.722656 412.796875 433.121094 415.046875 C 438.519531 417.296875 442.117188 418.644531 442.117188 418.644531 C 442.117188 418.644531 438.667969 416.847656 433.570312 413.996094 C 428.625 410.996094 422.175781 406.792969 416.03125 402.144531 C 409.882812 397.492188 404.035156 392.390625 399.835938 388.492188 C 395.640625 384.589844 392.941406 382.039062 392.792969 381.890625 C 384.546875 374.988281 376.300781 367.488281 368.355469 360.285156 C 368.804688 360.4375 369.554688 360.585938 370.601562 360.886719 C 372.25 361.335938 374.652344 361.9375 377.5 362.386719 C 383.195312 363.4375 390.992188 364.035156 398.636719 363.585938 C 406.285156 363.285156 413.632812 362.386719 419.179688 361.9375 C 424.726562 361.484375 428.472656 361.484375 428.472656 361.484375 C 428.472656 361.484375 424.726562 361.035156 419.179688 360.734375 C 413.632812 360.4375 405.984375 360.285156 398.636719 359.6875 C 391.292969 359.085938 384.246094 357.585938 379.148438 355.933594 C 376.597656 355.035156 374.5 354.285156 373 353.683594 C 371.652344 353.085938 370.753906 352.785156 370.753906 352.785156 C 370.753906 352.785156 370.601562 352.785156 370.601562 352.785156 C 363.105469 350.085938 353.0625 345.882812 344.816406 339.433594 C 344.066406 338.832031 343.316406 338.230469 342.566406 337.632812 C 341.964844 337.183594 341.367188 336.582031 340.765625 336.132812 C 340.617188 335.980469 340.46875 335.980469 340.46875 335.980469 C 334.921875 331.332031 329.371094 326.828125 323.675781 322.628906 C 321.277344 320.828125 318.878906 319.179688 316.328125 317.378906 C 309.882812 312.726562 303.136719 308.078125 297.289062 302.675781 C 275.851562 282.871094 265.207031 253.316406 256.960938 224.363281 C 255.609375 219.859375 254.410156 215.359375 253.210938 211.007812 C 252.460938 208.308594 251.710938 205.457031 250.960938 202.757812 C 255.308594 207.558594 260.109375 212.058594 264.90625 215.808594 C 264.90625 215.808594 265.65625 216.261719 267.003906 217.160156 C 268.351562 218.0625 270.300781 219.261719 272.703125 220.761719 C 277.5 223.761719 283.796875 227.511719 290.242188 230.964844 C 296.6875 234.5625 303.285156 237.863281 308.082031 240.414062 C 310.484375 241.765625 312.582031 242.816406 313.929688 243.714844 C 315.28125 244.464844 315.878906 245.214844 315.878906 245.214844 C 315.878906 245.214844 315.429688 244.464844 314.082031 243.414062 C 312.882812 242.363281 310.933594 241.015625 308.683594 239.363281 C 304.1875 236.214844 298.1875 231.863281 292.339844 227.511719 C 286.496094 223.160156 280.796875 218.660156 276.597656 215.210938 C 274.5 213.558594 272.851562 212.058594 271.652344 211.007812 C 270.601562 210.109375 269.851562 209.507812 269.851562 209.359375 C 258.910156 200.808594 248.714844 188.957031 243.765625 179.054688 C 239.117188 164.652344 233.570312 150.546875 226.074219 137.347656 C 219.476562 125.496094 204.035156 101.789062 180.796875 87.835938 C 211.382812 90.839844 241.816406 95.640625 271.652344 100.289062 C 275.699219 100.890625 279.746094 101.488281 283.796875 102.238281 C 284.246094 102.539062 284.84375 102.839844 285.445312 103.441406 C 287.09375 104.640625 289.492188 106.140625 292.191406 108.242188 C 297.589844 112.292969 304.636719 118.144531 310.78125 124.746094 C 313.929688 128.042969 316.929688 131.496094 319.476562 134.945312 C 322.175781 138.246094 324.425781 141.546875 326.226562 144.546875 C 328.171875 147.398438 329.523438 149.949219 330.574219 151.75 C 331.621094 153.550781 332.070312 154.449219 332.070312 154.449219 C 332.070312 154.449219 331.621094 153.398438 330.871094 151.597656 C 330.121094 149.796875 328.921875 147.097656 327.273438 143.949219 C 325.773438 140.796875 323.824219 137.195312 321.425781 133.597656 C 319.179688 129.84375 316.480469 126.09375 313.632812 122.34375 C 308.535156 115.59375 302.835938 109.441406 297.890625 104.789062 C 313.03125 107.042969 328.171875 109.292969 343.617188 111.09375 C 344.214844 111.542969 345.113281 111.992188 346.015625 111.992188 C 366.855469 111.691406 388.742188 122.195312 411.230469 143.199219 C 417.828125 149.347656 424.277344 156.101562 430.421875 162.699219 C 430.722656 163.152344 431.171875 163.75 431.773438 164.652344 C 432.820312 166.300781 434.171875 168.550781 435.519531 171.703125 C 436.871094 174.703125 438.367188 178.453125 439.566406 182.503906 C 440.765625 186.707031 442.265625 191.507812 444.066406 195.855469 C 447.664062 204.707031 452.613281 212.808594 456.960938 218.511719 C 459.058594 221.363281 461.007812 223.613281 462.355469 225.113281 C 463.707031 226.613281 464.457031 227.511719 464.457031 227.511719 C 464.457031 227.511719 463.707031 226.613281 462.507812 224.960938 C 461.308594 223.3125 459.65625 220.910156 458.007812 217.761719 C 454.410156 211.757812 450.511719 203.359375 447.964844 194.507812 C 446.613281 190.003906 445.714844 185.65625 444.964844 181.304688 C 444.664062 179.804688 444.367188 178.152344 444.066406 176.804688 C 451.261719 184.003906 458.757812 191.054688 467.152344 197.207031 C 476.597656 204.257812 489.792969 210.859375 505.683594 217.160156 C 505.683594 217.3125 505.835938 217.460938 505.984375 217.761719 C 506.285156 218.359375 506.585938 218.960938 507.183594 220.011719 C 507.933594 221.0625 508.683594 222.5625 509.734375 223.761719 C 510.78125 225.113281 511.832031 226.460938 513.179688 227.8125 C 518.277344 233.664062 525.476562 240.265625 531.621094 247.917969 C 534.769531 251.667969 537.617188 255.566406 540.167969 259.46875 C 541.367188 261.417969 542.566406 263.367188 543.617188 265.167969 C 544.515625 267.121094 545.566406 268.769531 546.316406 270.421875 C 547.8125 273.71875 549.011719 276.570312 549.761719 278.671875 C 550.511719 280.773438 550.960938 281.820312 550.960938 281.820312 C 550.960938 281.820312 550.664062 280.621094 550.0625 278.523438 C 549.613281 276.421875 548.714844 273.421875 547.515625 269.820312 C 546.914062 268.019531 546.164062 266.21875 545.265625 264.117188 C 544.515625 262.167969 543.464844 260.066406 542.417969 257.96875 C 540.316406 253.765625 537.769531 249.417969 534.921875 245.214844 C 529.375 236.8125 522.777344 229.164062 518.578125 223.3125 C 517.980469 222.410156 517.378906 221.660156 516.929688 220.910156 C 520.828125 222.261719 524.875 223.613281 528.921875 224.8125 C 528.921875 224.8125 532.671875 225.5625 538.21875 226.914062 C 543.765625 228.113281 551.261719 229.460938 558.757812 230.664062 C 573.75 233.0625 588.894531 234.414062 588.894531 234.414062 C 588.894531 234.414062 574.050781 231.113281 559.65625 226.761719 C 552.460938 224.660156 545.265625 222.261719 540.019531 220.3125 C 534.921875 218.359375 531.320312 217.160156 531.171875 217.160156 C 531.171875 217.160156 531.171875 217.160156 531.023438 217.160156 C 512.429688 211.460938 496.6875 205.160156 484.394531 198.40625 C 487.992188 198.257812 491.890625 197.957031 495.789062 197.507812 C 502.085938 196.757812 508.382812 195.707031 513.03125 195.105469 C 517.679688 194.507812 520.828125 194.054688 520.828125 194.054688 C 520.828125 194.054688 517.679688 193.90625 512.882812 193.757812 C 508.082031 193.605469 501.785156 193.605469 495.488281 193.304688 C 489.191406 193.007812 483.046875 192.40625 478.699219 191.355469 C 476.449219 190.90625 474.800781 190.457031 473.449219 190.15625 C 472.101562 189.855469 471.351562 189.554688 471.351562 189.554688 C 471.203125 189.554688 470.902344 189.40625 470.753906 189.40625 C 458.308594 180.105469 447.363281 168.550781 436.871094 157.300781 C 436.871094 157.300781 436.71875 157.148438 436.71875 157.148438 C 436.570312 157 436.417969 157 436.417969 156.851562 C 430.121094 150.25 423.675781 143.496094 416.929688 137.046875 C 406.882812 127.59375 396.839844 120.242188 386.945312 114.691406 C 398.1875 115.441406 409.433594 115.894531 420.675781 115.894531 C 428.472656 115.894531 436.269531 115.742188 444.066406 115.292969 C 489.792969 112.890625 534.46875 102.992188 577.199219 86.039062 C 577.347656 86.039062 577.648438 86.039062 577.800781 86.039062 C 579.449219 85.886719 581.398438 85.886719 583.945312 85.886719 C 589.042969 85.886719 596.089844 86.488281 602.988281 87.6875 C 609.882812 89.039062 616.628906 90.988281 621.578125 92.9375 C 626.523438 94.890625 629.671875 96.390625 629.671875 96.390625 C 629.671875 96.390625 626.523438 93.390625 621.878906 90.839844 Z M 621.878906 90.839844 " fill-opacity="1" fill-rule="nonzero"/><path fill="#538d02" d="M 116.628906 128.496094 C 114.980469 135.847656 107.785156 140.496094 104.035156 147.097656 C 99.238281 155.800781 101.1875 166.601562 100.4375 176.503906 C 98.789062 200.058594 82.148438 219.410156 66.40625 236.8125 C 84.09375 236.964844 100.886719 226.3125 111.082031 211.757812 C 121.277344 197.207031 125.625 179.355469 126.824219 161.652344 C 127.574219 150.097656 126.074219 135.546875 116.628906 128.496094 Z M 116.628906 128.496094 " fill-opacity="1" fill-rule="nonzero"/><path fill="#a0c33c" d="M 493.390625 88.886719 C 480.496094 76.585938 462.65625 66.082031 445.566406 70.882812 C 437.46875 73.285156 430.574219 78.835938 422.925781 82.4375 C 412.882812 87.085938 402.386719 92.039062 391.742188 89.488281 C 400.886719 107.042969 422.925781 112.742188 441.515625 119.492188 C 450.363281 122.644531 459.058594 125.945312 467.902344 129.09375 C 474.800781 131.644531 481.695312 134.195312 488.894531 134.496094 C 504.484375 135.246094 518.730469 125.644531 534.171875 123.09375 C 517.679688 116.042969 506.285156 101.191406 493.390625 88.886719 Z M 493.390625 88.886719 " fill-opacity="1" fill-rule="nonzero"/><path fill="#195a01" d="M 478.398438 118.59375 C 476.300781 118.292969 473.453125 117.542969 470.152344 116.34375 C 463.40625 113.792969 455.761719 108.390625 447.363281 103.441406 C 438.96875 98.488281 429.972656 94.589844 423.078125 92.1875 C 419.628906 90.988281 416.78125 90.089844 414.53125 89.488281 C 412.429688 88.886719 411.382812 88.585938 411.382812 88.585938 C 411.230469 88.585938 411.082031 88.585938 410.933594 88.4375 C 410.933594 88.4375 410.933594 88.4375 410.78125 88.4375 C 381.847656 82.4375 353.210938 86.039062 330.121094 98.339844 C 328.171875 99.390625 327.425781 101.789062 328.472656 103.742188 C 329.222656 105.089844 330.574219 105.839844 332.070312 105.839844 C 332.671875 105.839844 333.421875 105.691406 334.019531 105.390625 C 355.761719 93.839844 382.597656 90.539062 409.734375 96.238281 C 409.882812 96.238281 410.933594 96.390625 412.882812 96.839844 C 414.832031 97.140625 417.679688 97.738281 421.128906 98.640625 C 427.875 100.289062 436.871094 103.140625 445.566406 107.042969 C 454.109375 110.941406 462.65625 115.742188 469.703125 117.542969 C 473.152344 118.59375 476.148438 118.894531 478.25 119.042969 C 480.347656 119.191406 481.546875 119.042969 481.546875 119.042969 C 481.546875 119.042969 480.496094 118.894531 478.398438 118.59375 Z M 478.398438 118.59375 " fill-opacity="1" fill-rule="nonzero"/><path fill="#195a01" d="M 119.328125 111.242188 C 119.027344 109.589844 118.878906 108.691406 118.878906 108.691406 C 118.878906 108.542969 118.726562 108.390625 118.726562 108.089844 C 117.980469 105.992188 115.730469 104.789062 113.632812 105.539062 C 111.53125 106.289062 110.332031 108.542969 111.082031 110.640625 C 111.082031 110.640625 111.382812 111.542969 111.832031 113.042969 C 112.429688 114.691406 112.882812 116.492188 113.480469 119.042969 C 114.679688 124.144531 115.429688 131.34375 115.28125 138.546875 C 115.28125 145.746094 114.679688 153.097656 114.230469 158.648438 C 113.78125 164.203125 113.480469 167.800781 113.480469 167.800781 C 113.480469 167.800781 114.230469 164.203125 115.429688 158.800781 C 116.628906 153.398438 118.277344 146.199219 119.328125 138.847656 C 120.378906 131.496094 120.675781 123.84375 120.226562 117.992188 C 120.078125 115.441406 119.628906 112.742188 119.328125 111.242188 Z M 119.328125 111.242188 " fill-opacity="1" fill-rule="nonzero"/></svg>