<svg xmlns="http://www.w3.org/2000/svg" xmlns:xlink="http://www.w3.org/1999/xlink" width="1280" zoomAndPan="magnify" viewBox="0 0 960 540.000001" height="720" preserveAspectRatio="xMidYMid meet" version="1.0"><defs><clipPath id="85942ddd69"><path d="M 279.140625 256 L 408 256 L 408 433 L 279.140625 433 Z M 279.140625 256 " clip-rule="nonzero"/></clipPath></defs><path fill="#3e721d" d="M 618.699219 398.535156 C 614.75 398.535156 610.921875 396.480469 608.832031 392.8125 L 560.738281 313.59375 C 557.628906 308.152344 558.84375 301.339844 564.28125 298.21875 L 620.585938 264.148438 C 622.355469 263.136719 626.21875 262.265625 628.125 262.265625 C 632.078125 262.265625 635.757812 264.511719 637.847656 268.179688 L 673.128906 326.347656 L 674.992188 351.691406 C 678.105469 357.132812 664.113281 365.140625 658.660156 368.25 L 624.308594 397.039062 C 622.550781 398.058594 620.609375 398.535156 618.699219 398.535156 Z M 618.699219 398.535156 " fill-opacity="1" fill-rule="nonzero"/><path fill="#77b255" d="M 539.195312 432.605469 C 532.917969 432.605469 527.839844 427.527344 527.839844 421.25 L 527.839844 353.113281 C 527.839844 346.832031 532.917969 341.757812 539.195312 341.757812 L 652.757812 341.757812 C 673.765625 341.757812 670.359375 321.53125 670.359375 321.53125 C 670.359375 321.53125 674.074219 327.914062 674.617188 328.925781 C 678.332031 335.898438 680.796875 346.546875 675.003906 357.371094 L 639.925781 426.894531 C 638.277344 430.175781 634.347656 432.605469 630.042969 432.605469 Z M 539.195312 432.605469 " fill-opacity="1" fill-rule="nonzero"/><path fill="#77b255" d="M 527.839844 466.671875 C 524.886719 466.671875 521.980469 465.515625 519.8125 463.347656 L 451.675781 395.210938 C 447.234375 390.769531 447.234375 383.59375 451.675781 379.152344 L 519.8125 311.015625 C 521.980469 308.847656 524.886719 307.6875 527.839844 307.6875 C 529.304688 307.6875 530.78125 307.960938 532.1875 308.550781 C 536.4375 310.300781 539.195312 314.457031 539.195312 319.042969 L 539.195312 455.316406 C 539.195312 459.90625 536.4375 464.0625 532.1875 465.808594 C 530.78125 466.402344 529.304688 466.671875 527.839844 466.671875 Z M 527.839844 466.671875 " fill-opacity="1" fill-rule="nonzero"/><path fill="#3e721d" d="M 511.863281 106.675781 C 513.65625 110.195312 513.566406 114.53125 511.25 118.074219 L 462.496094 196.886719 C 459.054688 202.144531 452.433594 204.144531 447.1875 200.703125 L 391.273438 166.019531 C 389.566406 164.898438 387.023438 161.851562 386.160156 160.160156 C 384.367188 156.640625 384.695312 152.347656 387.011719 148.804688 L 422.808594 90.957031 L 444.542969 77.796875 C 447.984375 72.539062 461.464844 81.371094 466.722656 84.824219 L 507.957031 102.359375 C 509.679688 103.484375 511 104.992188 511.863281 106.675781 Z M 511.863281 106.675781 " fill-opacity="1" fill-rule="nonzero"/><path fill="#77b255" d="M 578.304688 162.046875 C 581.15625 167.644531 578.953125 174.46875 573.34375 177.332031 L 512.621094 208.265625 C 507.035156 211.105469 500.199219 208.890625 497.359375 203.304688 L 445.78125 102.121094 C 436.253906 83.394531 419.777344 95.613281 419.777344 95.613281 C 419.777344 95.613281 423.773438 89.414062 424.429688 88.457031 C 428.960938 81.984375 437.320312 74.96875 449.597656 75.207031 L 527.488281 74.886719 C 531.167969 74.886719 535.109375 77.261719 537.074219 81.101562 Z M 578.304688 162.046875 " fill-opacity="1" fill-rule="nonzero"/><path fill="#77b255" d="M 613.816406 156.710938 C 615.15625 159.332031 615.441406 162.445312 614.5 165.363281 L 584.734375 257.015625 C 582.804688 262.980469 576.398438 266.238281 570.425781 264.308594 L 478.78125 234.519531 C 475.851562 233.578125 473.511719 231.511719 472.160156 228.886719 C 471.492188 227.59375 471.070312 226.140625 470.945312 224.617188 C 470.582031 220.03125 473.035156 215.691406 477.125 213.613281 L 598.542969 151.746094 C 602.632812 149.65625 607.570312 150.226562 611.070312 153.222656 C 612.238281 154.199219 613.160156 155.402344 613.816406 156.710938 Z M 613.816406 156.710938 " fill-opacity="1" fill-rule="nonzero"/><path fill="#3e721d" d="M 316.332031 347.910156 C 318.386719 344.539062 322.125 342.347656 326.347656 342.472656 L 419.027344 342.527344 C 425.304688 342.722656 430.484375 347.296875 430.324219 353.566406 L 430.167969 419.375 C 430.109375 421.417969 428.847656 425.191406 427.859375 426.800781 C 425.804688 430.175781 421.96875 432.164062 417.742188 432.039062 L 349.71875 431.945312 L 327.085938 420.375 C 320.828125 420.183594 321.261719 404.078125 321.421875 397.820312 L 314.6875 353.488281 C 314.730469 351.453125 315.34375 349.535156 316.332031 347.910156 Z M 316.332031 347.910156 " fill-opacity="1" fill-rule="nonzero"/><g clip-path="url(#85942ddd69)"><path fill="#77b255" d="M 328.550781 262.285156 C 331.8125 256.925781 338.796875 255.222656 344.15625 258.480469 L 402.367188 293.902344 C 407.738281 297.160156 409.429688 304.132812 406.171875 309.503906 L 347.152344 406.519531 C 336.25 424.464844 355.296875 432.070312 355.296875 432.070312 C 355.296875 432.070312 347.914062 431.914062 346.765625 431.84375 C 338.863281 431.414062 328.496094 427.972656 322.25 417.410156 L 281.070312 351.316406 C 279.128906 348.195312 279.097656 343.574219 281.332031 339.894531 Z M 328.550781 262.285156 " fill-opacity="1" fill-rule="nonzero"/></g><path fill="#77b255" d="M 305.339844 234.882812 C 306.882812 232.339844 309.371094 230.476562 312.359375 229.730469 L 405.988281 206.949219 C 412.085938 205.449219 418.21875 209.183594 419.707031 215.285156 L 442.5 308.902344 C 443.226562 311.902344 442.691406 314.96875 441.160156 317.5 C 440.410156 318.738281 439.398438 319.863281 438.160156 320.769531 C 434.457031 323.472656 429.484375 323.675781 425.554688 321.292969 L 309.15625 250.488281 C 305.226562 248.089844 303.125 243.570312 303.828125 239.039062 C 304.058594 237.519531 304.578125 236.132812 305.339844 234.882812 Z M 305.339844 234.882812 " fill-opacity="1" fill-rule="nonzero"/></svg>