<svg xmlns="http://www.w3.org/2000/svg" xmlns:xlink="http://www.w3.org/1999/xlink" width="1280" zoomAndPan="magnify" viewBox="0 0 960 540.000001" height="720" preserveAspectRatio="xMidYMid meet" version="1.0"><defs><clipPath id="27b1aaa5a3"><path d="M 320.089844 50.71875 L 639.75 50.71875 L 639.75 487.910156 L 320.089844 487.910156 Z M 320.089844 50.71875 " clip-rule="nonzero"/></clipPath><clipPath id="6ba6c50b89"><path d="M 320.089844 50.71875 L 639.75 50.71875 L 639.75 487.910156 L 320.089844 487.910156 Z M 320.089844 50.71875 " clip-rule="nonzero"/></clipPath></defs><g clip-path="url(#27b1aaa5a3)"><path fill="#000000" d="M 622.882812 175.144531 L 622.886719 176.257812 L 622.855469 177.003906 L 622.792969 178.40625 L 622.640625 181.203125 C 622.53125 183.070312 622.40625 184.933594 622.265625 186.792969 C 621.980469 190.515625 621.636719 194.234375 621.207031 197.945312 C 620.222656 206.488281 618.90625 214.996094 617.195312 223.449219 C 616.992188 224.503906 616.765625 225.558594 616.539062 226.613281 C 616.320312 227.664062 616.066406 228.75 615.910156 229.714844 L 614.84375 235.683594 L 613.976562 241.882812 C 613.683594 243.945312 613.402344 246.015625 613.171875 248.109375 C 611.066406 265.652344 609.199219 283.378906 607.996094 301.050781 C 606.648438 320.839844 604.78125 340.554688 603.261719 360.324219 C 602.800781 366.199219 602.816406 372.105469 602.367188 377.984375 C 601.375 391.035156 600.296875 404.089844 599.203125 417.132812 L 595.9375 455.679688 L 595.140625 465.316406 L 594.753906 470.132812 L 594.703125 470.753906 L 594.585938 471.742188 C 594.476562 472.398438 594.351562 473.054688 594.152344 473.691406 C 593.773438 474.972656 593.226562 476.207031 592.5 477.328125 C 591.066406 479.578125 589.007812 481.417969 586.605469 482.558594 C 585.410156 483.132812 584.132812 483.554688 582.835938 483.769531 C 582.460938 483.839844 582.3125 483.855469 582.097656 483.886719 L 581.480469 483.976562 L 580.246094 484.148438 C 576.957031 484.597656 573.683594 484.972656 570.410156 485.300781 C 558.421875 486.492188 546.460938 487.105469 534.503906 487.378906 C 528.5 487.507812 522.609375 487.546875 516.695312 487.621094 L 498.957031 487.800781 L 492.609375 487.785156 C 466.804688 487.765625 440.988281 487.933594 415.199219 487.683594 C 401.503906 487.550781 387.824219 487.675781 374.144531 487.8125 C 373.554688 487.832031 371.792969 487.839844 370.402344 487.558594 C 368.960938 487.300781 367.5625 486.792969 366.265625 486.121094 C 363.65625 484.773438 361.472656 482.632812 360.0625 480.046875 C 359.351562 478.757812 358.828125 477.359375 358.535156 475.929688 C 358.5 475.773438 358.445312 475.527344 358.433594 475.441406 L 358.269531 474.457031 L 358.050781 473.148438 C 357.769531 471.410156 357.449219 469.644531 357.226562 467.9375 L 356.515625 462.769531 L 355.894531 457.625 C 355.472656 454.191406 355.136719 450.769531 354.792969 447.34375 C 353.894531 438.027344 353.136719 428.722656 352.417969 419.417969 C 351.398438 406.347656 350.484375 393.28125 349.675781 380.199219 C 348.882812 367.101562 348.140625 354.058594 347.796875 340.808594 L 347.714844 332.132812 C 347.621094 329.285156 347.558594 326.4375 347.421875 323.554688 C 347.1875 317.804688 346.902344 312.03125 346.605469 306.261719 C 346.011719 294.714844 345.347656 283.160156 344.671875 271.605469 C 343.761719 256.125 343 240.640625 341.894531 225.164062 C 340.960938 212.128906 339.628906 199.117188 338.542969 186.085938 C 338.429688 184.71875 338.332031 183.351562 338.242188 181.980469 L 338.117188 179.929688 C 338.105469 179.796875 338.101562 179.472656 338.097656 179.238281 L 338.09375 178.472656 C 338.125 177.960938 338.167969 177.449219 338.242188 176.945312 C 338.5625 174.914062 339.375 172.976562 340.566406 171.335938 C 341.757812 169.6875 343.355469 168.359375 345.148438 167.433594 C 345.730469 167.113281 346.3125 166.945312 346.820312 166.796875 C 347.347656 166.691406 347.816406 166.617188 348.234375 166.625 C 348.316406 166.628906 348.382812 166.640625 348.457031 166.644531 L 367.714844 164.863281 L 367.710938 164.875 C 370.234375 164.605469 372.832031 164.417969 375.480469 164.300781 C 383.949219 163.917969 392.445312 163.742188 400.90625 163.339844 C 417.777344 162.542969 434.621094 161.660156 451.566406 161.132812 C 454.097656 161.050781 456.660156 161.164062 459.214844 161.15625 L 541.710938 161.199219 L 600.027344 161.582031 L 605.542969 161.585938 L 608.300781 161.578125 L 608.644531 161.578125 L 609.160156 161.59375 C 609.527344 161.613281 609.898438 161.628906 610.265625 161.664062 C 611 161.765625 611.734375 161.875 612.453125 162.085938 C 615.339844 162.847656 617.929688 164.582031 619.796875 166.894531 C 620.71875 168.0625 621.460938 169.371094 621.996094 170.769531 C 622.527344 172.167969 622.808594 173.65625 622.882812 175.144531 Z M 638.617188 87.492188 C 638.261719 88.777344 637.640625 89.882812 636.949219 90.816406 C 636.433594 91.457031 635.878906 92.015625 635.292969 92.472656 L 635.292969 92.476562 L 635.289062 92.476562 C 635.042969 92.664062 634.796875 92.84375 634.539062 92.996094 C 633.402344 93.703125 632.222656 94.058594 631.125 94.160156 L 619.640625 98.796875 L 619.640625 98.792969 C 613.996094 101.214844 608.082031 103.179688 601.757812 104.542969 C 578.878906 109.46875 556.03125 114.570312 533.226562 119.835938 C 515.03125 124.054688 496.917969 128.648438 478.742188 132.914062 C 459.015625 137.507812 439.257812 141.941406 419.550781 146.578125 C 418.285156 146.875 416.960938 147.054688 415.761719 147.484375 C 408.167969 150.175781 400.378906 152.148438 392.574219 154.050781 L 380.867188 156.894531 L 375.027344 158.359375 C 373.089844 158.886719 371.160156 159.425781 369.238281 159.992188 L 361.597656 162.222656 L 357.769531 163.328125 L 353.976562 164.484375 L 346.386719 166.789062 L 342.503906 167.953125 C 340.367188 168.59375 338.019531 168.65625 335.871094 168.160156 C 331.535156 167.171875 328.105469 164.175781 326.277344 160.390625 C 326.066406 159.90625 325.859375 159.421875 325.679688 158.921875 L 325.449219 158.164062 C 325.378906 157.921875 325.289062 157.617188 325.265625 157.496094 L 324.789062 155.554688 L 323.84375 151.667969 L 321.960938 143.898438 L 321.023438 140.011719 L 320.964844 139.769531 L 320.886719 139.390625 L 320.738281 138.613281 C 320.648438 138.09375 320.621094 137.5625 320.578125 137.035156 C 320.566406 136.503906 320.570312 135.972656 320.601562 135.441406 C 320.660156 134.917969 320.695312 134.382812 320.808594 133.867188 C 321.359375 130.808594 322.992188 128.011719 325.296875 125.964844 C 326.449219 124.933594 327.792969 124.125 329.214844 123.539062 C 329.574219 123.394531 329.921875 123.25 330.3125 123.144531 L 330.882812 122.976562 C 331.050781 122.933594 331.3125 122.855469 331.398438 122.839844 L 332.855469 122.53125 L 344.296875 120.109375 L 367.148438 115.253906 C 370.175781 114.59375 373.421875 113.992188 376.082031 112.789062 C 381.519531 110.34375 387.304688 108.964844 393.089844 107.585938 C 406.25 104.457031 419.457031 101.507812 432.613281 98.351562 C 435.761719 97.597656 438.910156 96.832031 442.0625 96.070312 C 441.933594 94.679688 441.871094 93.277344 441.839844 91.882812 C 441.847656 88.109375 442.121094 84.269531 443.265625 80.632812 C 444.613281 76.722656 446.847656 73.234375 449.363281 70.148438 C 449.53125 69.949219 449.796875 69.824219 449.855469 69.554688 C 450.046875 68.722656 450.355469 67.941406 450.824219 67.292969 C 451.296875 66.648438 451.859375 66.074219 452.449219 65.527344 C 453.019531 64.96875 453.679688 64.503906 454.316406 64.023438 C 454.949219 63.542969 455.554688 63.035156 456.105469 62.464844 C 459.128906 59.542969 462.851562 57.402344 466.757812 55.890625 C 467.472656 55.621094 468.199219 55.375 468.929688 55.144531 C 469.675781 54.96875 470.425781 54.808594 471.175781 54.65625 C 472.65625 54.300781 474.203125 54.21875 475.703125 54.015625 C 476.296875 53.917969 476.953125 54.015625 477.453125 53.390625 C 478.488281 52.148438 479.722656 51.917969 480.949219 51.941406 C 482.347656 51.914062 483.75 51.910156 485.148438 52.140625 L 487.242188 52.414062 L 489.3125 52.859375 C 494.304688 53.921875 499.148438 56.078125 503.175781 59.242188 C 505.742188 61.332031 507.980469 63.796875 509.828125 66.4375 C 512.433594 70.003906 514.464844 73.894531 515.847656 77.949219 L 526.9375 75.226562 C 534.632812 73.332031 542.34375 71.464844 550.011719 69.476562 C 571.871094 63.886719 593.714844 58.082031 615.175781 51.695312 C 616.097656 51.441406 616.574219 51.28125 618.445312 50.925781 C 620.027344 50.714844 621.636719 50.785156 623.15625 51.109375 C 626.199219 51.796875 628.773438 53.417969 630.746094 55.46875 C 632.183594 56.957031 633.296875 58.734375 634.007812 60.667969 C 634.203125 61.144531 634.316406 61.648438 634.460938 62.144531 C 634.539062 62.429688 634.566406 62.570312 634.597656 62.722656 L 634.703125 63.199219 L 635.121094 65.097656 L 636.847656 72.6875 C 637.316406 74.710938 637.820312 76.730469 638.332031 78.746094 L 638.710938 80.261719 C 638.738281 80.351562 638.792969 80.613281 638.828125 80.796875 L 638.949219 81.398438 C 639.035156 81.796875 639.058594 82.207031 639.101562 82.613281 C 639.230469 84.25 639.070312 85.914062 638.617188 87.492188 Z M 452.8125 93.472656 C 469.835938 89.324219 486.835938 85.109375 503.835938 80.898438 L 504.007812 80.855469 C 503.90625 80.703125 503.800781 80.550781 503.707031 80.394531 C 503.585938 80.203125 503.621094 79.941406 503.542969 79.726562 C 502.554688 77.472656 501.402344 75.304688 499.992188 73.378906 C 499.75 73.035156 499.53125 72.664062 499.292969 72.3125 L 498.535156 71.300781 C 498.28125 70.964844 498.042969 70.605469 497.773438 70.28125 C 497.484375 69.976562 497.191406 69.675781 496.890625 69.382812 C 496.664062 69.160156 496.425781 68.949219 496.183594 68.746094 C 495.941406 68.539062 495.65625 68.394531 495.390625 68.222656 C 494.847656 67.902344 494.34375 67.53125 493.816406 67.199219 C 493.199219 66.835938 492.613281 66.417969 492.019531 66.003906 C 491.390625 65.667969 490.757812 65.316406 490.109375 65 C 489.410156 64.71875 488.695312 64.460938 487.980469 64.203125 C 487.253906 63.980469 486.476562 63.917969 485.714844 63.929688 C 485.289062 63.921875 484.851562 63.988281 484.433594 63.976562 C 484.011719 63.976562 483.597656 63.949219 483.179688 63.90625 C 482.347656 63.855469 481.5 63.878906 480.660156 63.882812 C 480.15625 63.898438 479.6875 64.472656 479.199219 64.527344 C 478.652344 64.621094 478.101562 64.597656 477.550781 64.710938 C 476.996094 64.796875 476.4375 64.863281 475.875 64.921875 C 475.316406 64.949219 474.765625 65.074219 474.210938 65.167969 L 472.523438 65.453125 L 470.878906 65.9375 C 470.332031 66.105469 469.785156 66.28125 469.285156 66.566406 C 468.355469 67.050781 467.433594 67.566406 466.648438 68.273438 L 465.4375 69.269531 L 464.324219 70.363281 C 464.1875 70.488281 464.023438 70.578125 463.875 70.6875 C 463.410156 71.007812 463.015625 71.40625 462.617188 71.796875 L 461.402344 72.960938 C 461.039062 73.382812 460.667969 73.800781 460.28125 74.203125 L 459.6875 74.796875 C 459.492188 74.996094 459.320312 75.21875 459.128906 75.421875 C 458.726562 75.859375 458.371094 76.339844 458.042969 76.832031 C 457.75 77.34375 457.523438 77.898438 457.277344 78.429688 L 456.910156 79.230469 C 456.796875 79.5 456.714844 79.78125 456.605469 80.054688 C 456.398438 80.597656 456.164062 81.121094 455.863281 81.625 L 454.839844 83.769531 C 454.589844 84.273438 454.472656 84.820312 454.277344 85.347656 C 454.121094 85.882812 453.867188 86.402344 453.777344 86.953125 C 453.566406 88.054688 453.207031 89.148438 453.125 90.289062 L 452.910156 91.800781 C 452.839844 92.3125 452.859375 92.824219 452.820312 93.339844 Z M 452.8125 93.472656 " fill-opacity="1" fill-rule="nonzero"/></g><path fill="#6ec487" d="M 611.023438 176.285156 L 611.046875 175.828125 L 611.039062 175.675781 C 611.046875 175.589844 611.046875 175.503906 611.023438 175.421875 C 611.023438 175.339844 611.011719 175.257812 610.984375 175.179688 C 610.914062 174.863281 610.777344 174.566406 610.578125 174.296875 C 610.3125 173.960938 609.960938 173.660156 609.5625 173.53125 C 609.371094 173.433594 609.15625 173.421875 608.941406 173.375 C 608.882812 173.378906 608.828125 173.378906 608.773438 173.371094 C 608.722656 173.371094 608.761719 173.359375 608.644531 173.363281 L 607.128906 173.363281 L 597.4375 173.351562 L 578.054688 173.308594 L 539.289062 173.234375 L 484.082031 173.273438 L 456.515625 173.3125 C 447.394531 173.375 438.210938 173.570312 429.035156 173.78125 C 423.257812 173.917969 417.484375 173.398438 411.671875 173.40625 C 403.257812 173.421875 394.8125 173.605469 386.378906 173.820312 C 379.613281 173.992188 372.847656 174.320312 366.078125 174.546875 C 365.648438 174.5625 365.238281 174.558594 364.820312 174.558594 L 364.816406 174.570312 L 346.820312 177.351562 C 346.796875 177.703125 346.796875 178.046875 346.859375 178.378906 C 346.878906 178.578125 346.941406 178.777344 346.992188 178.972656 L 347.207031 180.058594 C 347.820312 183.25 348.382812 186.480469 348.878906 189.75 C 349.878906 196.289062 350.644531 202.988281 351.121094 209.894531 C 352.421875 228.910156 353.71875 247.929688 355.023438 266.945312 C 356.277344 285.980469 357.574219 304.980469 358.539062 324.121094 C 358.714844 327.957031 358.894531 331.773438 358.945312 335.785156 C 358.992188 337.6875 358.996094 339.4375 359.066406 341.324219 L 359.296875 346.945312 C 359.65625 354.476562 360.136719 362.042969 360.640625 369.601562 C 361.664062 384.726562 362.847656 399.859375 364.050781 414.972656 C 364.714844 423.164062 365.375 431.363281 366.125 439.535156 C 366.859375 447.710938 367.652344 455.882812 368.628906 463.953125 C 368.878906 465.964844 369.105469 467.996094 369.417969 469.960938 L 369.851562 472.925781 L 369.90625 473.296875 L 369.933594 473.480469 L 369.953125 473.554688 C 369.984375 473.648438 369.976562 473.757812 370.015625 473.851562 C 370.070312 474.046875 370.136719 474.234375 370.222656 474.417969 C 370.554688 475.144531 371.171875 475.753906 371.914062 476.089844 C 372.289062 476.257812 372.6875 476.359375 373.105469 476.390625 L 373.265625 476.40625 L 373.644531 476.410156 L 374.417969 476.417969 L 375.960938 476.4375 L 400.703125 476.691406 C 402.820312 476.710938 404.980469 476.851562 407.050781 476.742188 C 433.21875 475.332031 459.441406 476.746094 485.640625 476.523438 C 502.957031 476.429688 520.28125 476.335938 537.605469 476.238281 C 546.1875 476.070312 554.761719 475.71875 563.28125 475.046875 C 567.539062 474.710938 571.785156 474.308594 575.992188 473.777344 L 579.136719 473.363281 L 580.703125 473.136719 C 580.863281 473.117188 580.902344 473.101562 580.953125 473.089844 L 581.121094 473.0625 C 581.230469 473.039062 581.332031 472.996094 581.441406 472.976562 C 582.273438 472.710938 582.984375 472.117188 583.417969 471.367188 C 583.566406 471.085938 583.679688 470.792969 583.761719 470.484375 C 583.796875 470.328125 583.828125 470.167969 583.839844 470.003906 C 583.855469 469.976562 583.871094 469.703125 583.886719 469.523438 L 583.933594 468.929688 L 584.300781 464.191406 L 585.058594 454.710938 L 586.644531 435.757812 L 589.910156 397.859375 C 590.34375 392.835938 590.898438 387.488281 590.699219 382.792969 C 590.292969 373.210938 591.027344 363.550781 591.792969 353.886719 C 593.53125 331.917969 595.535156 309.964844 597.550781 287.996094 L 598.960938 273.101562 L 600.464844 258.199219 L 602.148438 243.261719 L 603.140625 235.746094 L 603.390625 233.867188 L 603.714844 231.933594 L 604.378906 228.058594 L 604.71875 226.132812 L 605.082031 224.347656 C 605.328125 223.15625 605.566406 221.960938 605.785156 220.765625 C 606.246094 218.375 606.664062 215.976562 607.058594 213.570312 C 607.851562 208.761719 608.527344 203.925781 609.101562 199.078125 C 609.671875 194.230469 610.148438 189.367188 610.511719 184.496094 C 610.695312 182.0625 610.84375 179.628906 610.976562 177.195312 Z M 418.160156 427.105469 C 418.230469 428.363281 418.445312 429.609375 418.554688 430.867188 C 418.640625 431.882812 417.652344 432.777344 416.183594 433.5625 C 414.828125 434.285156 413.1875 434.390625 411.851562 433.875 C 409.496094 432.96875 408.746094 431.582031 408.515625 430.074219 C 408.273438 428.5 408.21875 426.902344 407.9375 425.335938 C 407.363281 422.210938 406.664062 419.101562 406.074219 415.980469 C 405.984375 415.511719 406.066406 415.027344 406.023438 414.554688 C 405.566406 409.414062 405.074219 404.28125 404.722656 399.140625 C 404.464844 395.503906 404.449219 391.851562 404.214844 388.214844 C 404.027344 385.464844 403.601562 382.734375 403.402344 379.988281 C 403.171875 376.824219 403.148438 373.644531 402.9375 370.480469 C 402.71875 367.152344 402.679688 363.804688 402.054688 360.515625 C 401.371094 356.824219 401.308594 353.105469 401.015625 349.390625 C 400.925781 348.289062 400.378906 347.214844 400.289062 346.109375 C 400.105469 343.65625 400.03125 341.191406 399.996094 338.726562 C 399.949219 333.859375 400.113281 329.007812 400 324.078125 C 399.96875 322.949219 399.941406 321.785156 399.882812 320.636719 C 399.828125 319.496094 399.769531 318.539062 399.675781 317.453125 L 399.050781 310.960938 C 399.011719 310.570312 399.027344 310.179688 399.007812 309.785156 C 398.800781 305.011719 398.347656 300.21875 398.308594 295.40625 C 398.261719 290.292969 397.160156 285.253906 397.015625 280.144531 L 396.914062 274.929688 L 396.511719 260.269531 C 396.425781 255.933594 396.398438 251.59375 396.375 247.257812 C 396.363281 244.347656 396.539062 241.429688 396.394531 238.53125 C 396.273438 236.089844 395.769531 233.675781 395.527344 231.242188 C 395.425781 230.21875 395.582031 229.179688 395.59375 228.148438 C 395.613281 226.796875 402.4375 227.074219 403.164062 227.871094 C 405.195312 230.105469 406.449219 232.472656 406.53125 235.0625 C 406.761719 242.195312 407.089844 249.320312 407.515625 256.441406 C 407.855469 262.125 408.554688 267.785156 408.808594 273.472656 C 409.089844 279.644531 409.046875 285.839844 409.117188 292.027344 C 409.121094 292.425781 409.007812 292.835938 409.140625 293.21875 C 410.851562 298.027344 409.726562 303.023438 410.195312 307.933594 C 410.511719 311.1875 410.703125 314.453125 410.792969 317.796875 L 410.828125 322.679688 L 410.898438 327.449219 C 411.011719 332.140625 410.839844 336.871094 410.917969 341.597656 C 410.929688 342.539062 410.84375 343.546875 411.460938 344.378906 C 412.722656 346.082031 412.871094 347.882812 413.007812 349.679688 C 413.324219 353.773438 413.457031 357.878906 413.777344 361.976562 C 414.351562 369.378906 415.089844 376.769531 415.710938 384.167969 C 416.125 388.96875 416.351562 393.785156 416.757812 398.585938 C 417.324219 405.425781 418.039062 412.246094 418.632812 419.074219 C 418.730469 420.144531 418.15625 421.28125 418.101562 422.375 C 418.015625 423.957031 418.070312 425.535156 418.160156 427.105469 Z M 485.484375 414.597656 C 485.25 416.101562 485.160156 417.613281 485.09375 419.121094 C 485.039062 420.332031 485.128906 421.542969 485.109375 422.753906 C 485.09375 423.734375 484.019531 424.488281 482.476562 425.089844 C 481.054688 425.644531 479.414062 425.582031 478.136719 424.960938 C 475.882812 423.867188 475.277344 422.484375 475.199219 421.039062 C 475.113281 419.523438 475.222656 418.007812 475.085938 416.496094 C 474.808594 413.484375 474.414062 410.472656 474.09375 407.464844 C 474.046875 407.011719 474.171875 406.558594 474.171875 406.109375 C 474.175781 401.195312 474.117188 396.285156 474.179688 391.375 C 474.222656 387.902344 474.488281 384.425781 474.527344 380.953125 C 474.5625 378.328125 474.328125 375.703125 474.332031 373.074219 C 474.339844 370.050781 474.527344 367.027344 474.542969 364 C 474.554688 360.824219 474.730469 357.636719 474.328125 354.46875 C 473.875 350.921875 474.054688 347.378906 473.96875 343.835938 C 473.945312 342.78125 473.464844 341.730469 473.441406 340.675781 C 473.386719 338.335938 473.449219 335.996094 473.542969 333.652344 C 473.726562 329.042969 474.132812 324.433594 474.136719 319.820312 C 474.136719 315.597656 473.726562 311.375 473.507812 307.148438 C 473.488281 306.773438 473.519531 306.394531 473.519531 306.015625 C 473.523438 301.40625 473.34375 296.792969 473.582031 292.1875 C 473.832031 287.292969 473.042969 282.414062 473.222656 277.523438 C 473.285156 275.863281 473.390625 274.199219 473.457031 272.535156 C 473.652344 267.863281 473.800781 263.191406 474.035156 258.519531 C 474.238281 254.378906 474.511719 250.238281 474.792969 246.097656 C 474.980469 243.324219 475.359375 240.554688 475.421875 237.78125 C 475.472656 235.445312 475.136719 233.109375 475.070312 230.773438 C 475.039062 229.792969 475.273438 228.808594 475.359375 227.828125 C 475.472656 226.542969 482.261719 227.269531 482.925781 228.078125 C 484.796875 230.34375 485.875 232.683594 485.773438 235.15625 C 485.5 241.964844 485.332031 248.773438 485.269531 255.582031 C 485.222656 261.019531 485.539062 266.453125 485.425781 271.886719 C 485.300781 277.78125 484.867188 283.671875 484.570312 289.566406 C 484.550781 289.945312 484.410156 290.332031 484.523438 290.703125 C 485.945312 295.371094 484.546875 300.058594 484.78125 304.738281 C 485.09375 310.9375 485.019531 317.140625 484.929688 323.339844 C 484.863281 327.871094 484.476562 332.402344 484.292969 336.929688 C 484.257812 337.832031 484.117188 338.792969 484.6875 339.625 C 485.855469 341.320312 485.894531 343.050781 485.925781 344.78125 C 486.003906 348.714844 485.871094 352.652344 485.921875 356.585938 C 486.015625 363.699219 486.222656 370.8125 486.296875 377.921875 C 486.347656 382.539062 486.203125 387.15625 486.214844 391.773438 C 486.234375 398.347656 486.351562 404.921875 486.324219 411.496094 C 486.320312 412.527344 485.644531 413.558594 485.484375 414.597656 Z M 569.6875 232.164062 C 569.585938 233.683594 569.289062 235.179688 569.246094 236.707031 C 569.175781 239.753906 569.230469 242.808594 569.207031 245.855469 C 569.203125 246.3125 569.027344 246.753906 568.980469 247.207031 L 567.4375 261.988281 C 567.046875 265.472656 566.417969 268.929688 566.050781 272.417969 C 565.765625 275.054688 565.742188 277.71875 565.480469 280.359375 C 565.183594 283.398438 564.71875 286.425781 564.421875 289.464844 C 564.113281 292.660156 563.636719 295.851562 563.757812 299.078125 C 563.886719 302.6875 563.382812 306.238281 563.148438 309.8125 C 563.082031 310.875 563.46875 311.976562 563.398438 313.039062 C 563.246094 315.398438 562.976562 317.75 562.675781 320.097656 C 562.082031 324.722656 561.289062 329.335938 560.886719 333.976562 C 560.515625 338.230469 560.570312 342.519531 560.433594 346.792969 C 560.417969 347.175781 560.355469 347.554688 560.324219 347.933594 C 559.925781 352.578125 559.726562 357.238281 559.105469 361.859375 C 558.445312 366.769531 558.839844 371.753906 558.257812 376.664062 L 557.617188 381.671875 L 555.914062 395.753906 C 555.378906 399.910156 554.773438 404.0625 554.167969 408.210938 C 553.761719 410.992188 553.164062 413.757812 552.886719 416.546875 C 552.652344 418.898438 552.800781 421.28125 552.6875 423.644531 C 552.640625 424.632812 552.332031 425.605469 552.167969 426.589844 C 551.957031 427.878906 545.246094 426.621094 544.644531 425.753906 C 542.957031 423.324219 542.0625 420.882812 542.355469 418.394531 C 543.164062 411.546875 543.867188 404.6875 544.476562 397.824219 C 544.957031 392.347656 545.082031 386.839844 545.636719 381.367188 C 546.238281 375.433594 547.152344 369.523438 547.9375 363.601562 C 547.988281 363.222656 548.15625 362.84375 548.074219 362.460938 C 547.050781 357.636719 548.828125 353.023438 548.992188 348.285156 C 549.207031 342.007812 549.800781 335.757812 550.433594 329.511719 C 550.886719 324.949219 551.667969 320.414062 552.253906 315.859375 C 552.371094 314.957031 552.59375 314 552.101562 313.113281 C 551.085938 311.296875 551.203125 309.550781 551.324219 307.800781 C 551.601562 303.824219 552.089844 299.867188 552.398438 295.894531 C 552.964844 288.714844 553.414062 281.523438 554.039062 274.339844 C 554.429688 269.679688 555.039062 265.035156 555.496094 260.375 L 556.457031 250.414062 C 556.773438 247.09375 557.109375 243.773438 557.507812 240.453125 C 557.628906 239.40625 558.421875 238.441406 558.699219 237.410156 C 559.097656 235.917969 559.367188 234.402344 559.628906 232.886719 C 559.832031 231.671875 559.894531 230.433594 560.066406 229.214844 C 560.203125 228.222656 561.363281 227.597656 562.96875 227.1875 C 564.445312 226.8125 566.066406 227.089844 567.257812 227.875 C 569.355469 229.257812 569.789062 230.707031 569.6875 232.164062 Z M 625.21875 88.789062 C 624.898438 88.734375 624.546875 88.722656 624.128906 88.804688 C 622.40625 89.144531 620.671875 89.449219 618.945312 89.769531 C 618.945312 89.769531 618.941406 89.769531 618.941406 89.769531 L 618.941406 89.773438 C 617.351562 90.066406 615.761719 90.378906 614.191406 90.75 C 606.359375 92.585938 598.59375 94.699219 590.746094 96.4375 C 581.433594 98.507812 572.054688 100.261719 562.71875 102.230469 C 548.78125 105.160156 534.84375 108.121094 520.929688 111.1875 C 513.078125 112.90625 505.234375 114.660156 497.390625 116.4375 L 473.871094 121.785156 C 468.292969 123.066406 462.699219 124.28125 457.128906 125.59375 C 440.730469 129.410156 424.601562 134.203125 408.207031 138.128906 C 400.492188 140 392.789062 141.910156 385.109375 143.996094 L 373.59375 147.09375 L 362.085938 150.296875 C 360.824219 150.648438 359.558594 150.96875 358.304688 151.335938 C 354.804688 152.339844 351.308594 153.46875 347.816406 154.585938 L 342.578125 156.257812 L 339.957031 157.09375 L 339.355469 157.28125 C 339.300781 157.292969 339.246094 157.308594 339.191406 157.332031 C 339.136719 157.367188 339.078125 157.347656 339.027344 157.367188 C 338.972656 157.390625 338.917969 157.398438 338.859375 157.390625 C 338.636719 157.425781 338.394531 157.40625 338.125 157.328125 C 337.863281 157.253906 337.566406 157.148438 337.296875 156.949219 C 336.738281 156.585938 336.28125 156 336.023438 155.375 C 336 155.292969 335.980469 155.210938 335.949219 155.132812 C 335.929688 155.070312 335.925781 155.105469 335.890625 154.964844 L 335.808594 154.632812 L 335.46875 153.3125 L 334.800781 150.675781 L 333.480469 145.390625 L 332.082031 139.613281 L 331.734375 138.167969 L 331.5625 137.445312 C 331.542969 137.34375 331.492188 137.15625 331.492188 137.128906 L 331.476562 136.996094 C 331.417969 136.636719 331.402344 136.28125 331.472656 135.9375 C 331.609375 135.253906 331.96875 134.589844 332.5 134.140625 C 332.765625 133.921875 333.058594 133.75 333.371094 133.625 C 333.539062 133.550781 333.679688 133.53125 333.8125 133.488281 L 335.210938 133.191406 L 358.476562 128.269531 C 366.347656 126.566406 374.214844 124.820312 382.050781 122.957031 C 385.578125 122.125 388.996094 120.832031 392.523438 119.988281 C 404.390625 117.160156 416.296875 114.558594 428.082031 111.335938 C 438.601562 108.433594 449.316406 106.105469 459.957031 103.570312 C 470.085938 101.183594 480.25 98.929688 490.367188 96.488281 C 499.160156 94.386719 507.878906 91.984375 516.671875 89.871094 L 534.117188 85.71875 C 539.9375 84.34375 545.757812 82.980469 551.558594 81.507812 C 559.761719 79.441406 567.960938 77.367188 576.140625 75.171875 L 588.417969 71.90625 L 600.679688 68.523438 C 602.183594 68.109375 603.730469 67.816406 605.214844 67.355469 L 620.09375 62.464844 L 620.308594 62.390625 L 620.386719 62.371094 C 620.433594 62.355469 620.484375 62.339844 620.53125 62.316406 C 620.632812 62.277344 620.734375 62.28125 620.832031 62.238281 C 620.933594 62.230469 621.035156 62.222656 621.140625 62.203125 C 621.25 62.21875 621.355469 62.191406 621.46875 62.210938 C 621.914062 62.246094 622.410156 62.40625 622.882812 62.695312 C 623.355469 62.976562 623.789062 63.394531 624.101562 63.878906 C 624.253906 64.125 624.398438 64.378906 624.492188 64.652344 L 624.570312 64.855469 C 624.601562 64.921875 624.652344 65.144531 624.695312 65.28125 L 624.949219 66.21875 C 626.324219 71.230469 627.464844 76.320312 628.789062 81.351562 C 628.929688 81.878906 629.074219 82.40625 629.214844 82.925781 C 629.265625 83.0625 629.304688 83.199219 629.324219 83.339844 C 629.367188 83.476562 629.394531 83.617188 629.410156 83.757812 C 629.484375 84.214844 629.507812 84.695312 629.5 85.195312 C 628.539062 87.019531 626.914062 88.125 625.21875 88.789062 Z M 625.21875 88.789062 " fill-opacity="1" fill-rule="nonzero"/><g clip-path="url(#6ba6c50b89)"><path fill="#000000" d="M 622 170.765625 C 621.464844 169.371094 620.71875 168.0625 619.796875 166.894531 C 617.933594 164.582031 615.339844 162.84375 612.453125 162.082031 C 611.738281 161.871094 611.003906 161.761719 610.265625 161.660156 C 609.898438 161.625 609.53125 161.613281 609.164062 161.59375 L 608.644531 161.578125 L 608.300781 161.578125 L 605.542969 161.582031 L 600.03125 161.582031 L 541.710938 161.199219 L 459.214844 161.15625 C 456.660156 161.164062 454.097656 161.046875 451.566406 161.128906 C 434.621094 161.660156 417.777344 162.542969 400.910156 163.335938 C 392.445312 163.738281 383.953125 163.917969 375.484375 164.296875 C 372.832031 164.417969 370.234375 164.601562 367.714844 164.871094 L 367.71875 164.859375 L 348.460938 166.640625 C 348.382812 166.636719 348.316406 166.625 348.234375 166.625 C 347.816406 166.613281 347.351562 166.6875 346.824219 166.792969 C 346.316406 166.941406 345.730469 167.109375 345.148438 167.429688 C 343.355469 168.355469 341.757812 169.683594 340.570312 171.332031 C 339.378906 172.976562 338.5625 174.914062 338.242188 176.941406 C 338.167969 177.449219 338.128906 177.960938 338.09375 178.46875 L 338.097656 179.234375 C 338.101562 179.472656 338.109375 179.792969 338.121094 179.925781 L 338.246094 181.980469 C 338.332031 183.347656 338.429688 184.71875 338.542969 186.082031 C 339.628906 199.113281 340.964844 212.128906 341.894531 225.164062 C 343.003906 240.636719 343.765625 256.125 344.675781 271.605469 C 345.347656 283.160156 346.015625 294.714844 346.609375 306.257812 C 346.902344 312.03125 347.191406 317.800781 347.421875 323.550781 C 347.558594 326.433594 347.625 329.28125 347.714844 332.132812 L 347.796875 340.804688 C 348.140625 354.058594 348.882812 367.101562 349.675781 380.195312 C 350.484375 393.277344 351.402344 406.34375 352.417969 419.417969 C 353.136719 428.71875 353.894531 438.027344 354.792969 447.34375 C 355.136719 450.769531 355.472656 454.1875 355.894531 457.621094 L 356.515625 462.765625 L 357.230469 467.933594 C 357.449219 469.644531 357.769531 471.40625 358.050781 473.148438 L 358.269531 474.457031 L 358.378906 475.113281 L 358.433594 475.4375 C 358.445312 475.523438 358.503906 475.769531 358.535156 475.929688 C 358.828125 477.359375 359.351562 478.757812 360.0625 480.042969 C 361.472656 482.628906 363.660156 484.773438 366.265625 486.117188 C 367.566406 486.792969 368.964844 487.296875 370.40625 487.558594 C 371.792969 487.839844 373.558594 487.832031 374.148438 487.8125 C 387.824219 487.675781 401.503906 487.550781 415.199219 487.679688 C 440.988281 487.929688 466.808594 487.765625 492.609375 487.78125 L 498.960938 487.800781 L 516.699219 487.617188 C 522.613281 487.546875 528.503906 487.507812 534.507812 487.378906 C 546.460938 487.101562 558.421875 486.488281 570.414062 485.300781 C 573.6875 484.96875 576.960938 484.597656 580.246094 484.148438 L 581.480469 483.976562 L 582.097656 483.886719 C 582.3125 483.855469 582.464844 483.839844 582.839844 483.765625 C 584.136719 483.550781 585.410156 483.132812 586.605469 482.558594 C 589.011719 481.417969 591.070312 479.574219 592.503906 477.328125 C 593.226562 476.207031 593.777344 474.96875 594.152344 473.691406 C 594.355469 473.054688 594.480469 472.394531 594.585938 471.742188 L 594.703125 470.75 L 594.753906 470.132812 L 595.144531 465.3125 L 595.941406 455.675781 L 599.203125 417.132812 C 600.300781 404.085938 601.375 391.035156 602.371094 377.980469 C 602.820312 372.101562 602.800781 366.199219 603.261719 360.320312 C 604.785156 340.554688 606.652344 320.835938 607.996094 301.046875 C 609.203125 283.378906 611.070312 265.652344 613.171875 248.109375 C 613.402344 246.011719 613.6875 243.945312 613.976562 241.878906 L 614.84375 235.679688 L 615.914062 229.714844 C 616.070312 228.75 616.320312 227.660156 616.539062 226.613281 C 616.765625 225.558594 616.992188 224.503906 617.199219 223.445312 C 618.90625 214.996094 620.226562 206.484375 621.210938 197.941406 C 621.636719 194.234375 621.984375 190.515625 622.265625 186.792969 C 622.410156 184.929688 622.53125 183.066406 622.644531 181.203125 L 622.792969 178.402344 L 622.859375 177.003906 L 622.890625 176.253906 L 622.882812 175.140625 C 622.808594 173.65625 622.527344 172.167969 622 170.765625 Z M 609.101562 199.082031 C 608.527344 203.929688 607.851562 208.761719 607.058594 213.574219 C 606.664062 215.976562 606.246094 218.378906 605.785156 220.765625 C 605.566406 221.964844 605.328125 223.15625 605.082031 224.347656 L 604.71875 226.136719 L 604.378906 228.0625 L 603.714844 231.9375 L 603.390625 233.871094 L 603.140625 235.75 L 602.148438 243.265625 L 600.464844 258.199219 L 598.960938 273.105469 L 597.550781 287.996094 C 595.535156 309.96875 593.53125 331.921875 591.792969 353.890625 C 591.027344 363.554688 590.292969 373.214844 590.699219 382.796875 C 590.898438 387.492188 590.34375 392.835938 589.910156 397.859375 L 586.644531 435.757812 L 585.058594 454.710938 L 584.300781 464.191406 L 583.933594 468.933594 L 583.886719 469.527344 C 583.871094 469.707031 583.855469 469.980469 583.839844 470.007812 C 583.828125 470.171875 583.796875 470.328125 583.761719 470.484375 C 583.679688 470.792969 583.566406 471.089844 583.417969 471.367188 C 582.984375 472.121094 582.273438 472.710938 581.441406 472.980469 C 581.332031 473 581.230469 473.042969 581.121094 473.0625 L 580.953125 473.09375 C 580.902344 473.105469 580.863281 473.117188 580.703125 473.140625 L 579.136719 473.367188 L 575.992188 473.78125 C 571.785156 474.308594 567.539062 474.710938 563.28125 475.050781 C 554.761719 475.722656 546.1875 476.074219 537.605469 476.242188 C 520.28125 476.335938 502.957031 476.433594 485.640625 476.527344 C 459.441406 476.746094 433.21875 475.335938 407.050781 476.742188 C 404.980469 476.855469 402.820312 476.714844 400.703125 476.695312 L 375.960938 476.4375 L 374.417969 476.421875 L 373.644531 476.414062 L 373.265625 476.410156 L 373.109375 476.394531 C 372.6875 476.363281 372.289062 476.261719 371.914062 476.09375 C 371.171875 475.757812 370.554688 475.144531 370.222656 474.421875 C 370.136719 474.238281 370.070312 474.050781 370.015625 473.855469 C 369.976562 473.761719 369.984375 473.652344 369.953125 473.554688 L 369.933594 473.480469 L 369.90625 473.300781 L 369.851562 472.929688 L 369.417969 469.960938 C 369.105469 468 368.878906 465.96875 368.628906 463.953125 C 367.652344 455.882812 366.859375 447.710938 366.125 439.539062 C 365.375 431.367188 364.714844 423.167969 364.050781 414.972656 C 362.847656 399.859375 361.664062 384.730469 360.640625 369.605469 C 360.136719 362.042969 359.65625 354.476562 359.296875 346.949219 L 359.066406 341.328125 C 358.996094 339.441406 358.992188 337.6875 358.945312 335.789062 C 358.894531 331.777344 358.714844 327.960938 358.539062 324.125 C 357.574219 304.980469 356.277344 285.980469 355.023438 266.949219 C 353.722656 247.929688 352.421875 228.914062 351.121094 209.898438 C 350.644531 202.992188 349.878906 196.292969 348.878906 189.753906 C 348.382812 186.484375 347.820312 183.253906 347.207031 180.058594 L 346.992188 178.972656 C 346.941406 178.78125 346.878906 178.582031 346.859375 178.382812 C 346.796875 178.050781 346.796875 177.707031 346.820312 177.355469 L 364.816406 174.570312 L 364.820312 174.5625 C 365.238281 174.5625 365.648438 174.5625 366.078125 174.550781 C 372.847656 174.324219 379.613281 173.996094 386.378906 173.824219 C 394.8125 173.605469 403.257812 173.425781 411.671875 173.410156 C 417.488281 173.402344 423.257812 173.921875 429.035156 173.785156 C 438.210938 173.574219 447.394531 173.375 456.515625 173.316406 L 484.082031 173.277344 L 539.289062 173.238281 L 578.054688 173.3125 L 597.4375 173.355469 L 607.128906 173.363281 L 608.644531 173.363281 C 608.761719 173.363281 608.726562 173.375 608.773438 173.375 C 608.828125 173.382812 608.882812 173.382812 608.941406 173.378906 C 609.15625 173.421875 609.371094 173.433594 609.5625 173.53125 C 609.960938 173.664062 610.3125 173.964844 610.578125 174.300781 C 610.777344 174.566406 610.914062 174.867188 610.984375 175.183594 C 611.011719 175.261719 611.023438 175.339844 611.023438 175.425781 C 611.046875 175.503906 611.046875 175.589844 611.039062 175.679688 L 611.046875 175.832031 L 611.023438 176.289062 L 610.976562 177.199219 C 610.84375 179.632812 610.695312 182.070312 610.507812 184.503906 C 610.148438 189.367188 609.671875 194.230469 609.101562 199.082031 Z M 639.097656 82.617188 C 639.058594 82.210938 639.035156 81.796875 638.945312 81.398438 L 638.828125 80.800781 C 638.789062 80.617188 638.738281 80.355469 638.710938 80.261719 L 638.328125 78.75 C 637.820312 76.730469 637.316406 74.714844 636.847656 72.6875 L 635.117188 65.101562 L 634.703125 63.203125 L 634.597656 62.726562 C 634.566406 62.570312 634.539062 62.429688 634.457031 62.144531 C 634.316406 61.652344 634.203125 61.144531 634.007812 60.671875 C 633.296875 58.734375 632.183594 56.960938 630.746094 55.472656 C 628.773438 53.421875 626.199219 51.796875 623.152344 51.109375 C 621.632812 50.789062 620.027344 50.714844 618.441406 50.929688 C 616.574219 51.285156 616.097656 51.445312 615.175781 51.695312 C 593.714844 58.082031 571.871094 63.886719 550.011719 69.480469 C 542.339844 71.464844 534.632812 73.335938 526.9375 75.230469 L 515.847656 77.953125 C 514.464844 73.898438 512.433594 70.003906 509.828125 66.441406 C 507.980469 63.796875 505.742188 61.335938 503.171875 59.242188 C 499.148438 56.078125 494.304688 53.921875 489.3125 52.863281 L 487.238281 52.414062 L 485.148438 52.140625 C 483.75 51.914062 482.347656 51.917969 480.949219 51.941406 C 479.71875 51.917969 478.484375 52.148438 477.453125 53.394531 C 476.953125 54.015625 476.296875 53.917969 475.703125 54.015625 C 474.203125 54.222656 472.65625 54.304688 471.175781 54.660156 C 470.425781 54.8125 469.675781 54.96875 468.925781 55.144531 C 468.199219 55.378906 467.472656 55.625 466.753906 55.894531 C 462.851562 57.402344 459.128906 59.546875 456.105469 62.46875 C 455.554688 63.035156 454.949219 63.542969 454.316406 64.027344 C 453.679688 64.503906 453.015625 64.96875 452.445312 65.53125 C 451.859375 66.078125 451.296875 66.652344 450.820312 67.296875 C 450.355469 67.945312 450.046875 68.722656 449.855469 69.558594 C 449.796875 69.824219 449.53125 69.953125 449.363281 70.148438 C 446.847656 73.234375 444.613281 76.726562 443.261719 80.632812 C 442.121094 84.273438 441.84375 88.109375 441.835938 91.882812 C 441.871094 93.28125 441.933594 94.683594 442.0625 96.074219 C 438.910156 96.835938 435.761719 97.601562 432.609375 98.355469 C 419.457031 101.507812 406.25 104.460938 393.089844 107.589844 C 387.300781 108.96875 381.519531 110.347656 376.082031 112.792969 C 373.421875 113.992188 370.171875 114.597656 367.148438 115.257812 L 344.296875 120.109375 L 332.855469 122.53125 L 331.402344 122.839844 C 331.316406 122.855469 331.050781 122.933594 330.882812 122.976562 L 330.3125 123.144531 C 329.925781 123.25 329.574219 123.398438 329.21875 123.542969 C 327.796875 124.125 326.449219 124.933594 325.296875 125.964844 C 322.992188 128.011719 321.359375 130.808594 320.808594 133.867188 C 320.695312 134.382812 320.660156 134.917969 320.601562 135.445312 C 320.570312 135.972656 320.566406 136.503906 320.578125 137.035156 C 320.625 137.5625 320.648438 138.09375 320.742188 138.613281 L 320.886719 139.390625 L 320.964844 139.769531 L 321.023438 140.015625 L 321.964844 143.898438 L 323.847656 151.671875 L 325.265625 157.496094 C 325.292969 157.617188 325.378906 157.921875 325.453125 158.164062 L 325.683594 158.925781 C 325.859375 159.421875 326.066406 159.90625 326.28125 160.390625 C 328.109375 164.175781 331.539062 167.175781 335.871094 168.164062 C 338.023438 168.65625 340.367188 168.59375 342.507812 167.953125 L 346.386719 166.789062 L 353.976562 164.484375 L 357.773438 163.328125 L 361.597656 162.222656 L 369.242188 159.992188 C 371.164062 159.425781 373.09375 158.886719 375.027344 158.363281 L 380.871094 156.894531 L 392.578125 154.050781 C 400.378906 152.148438 408.167969 150.175781 415.761719 147.484375 C 416.964844 147.054688 418.289062 146.875 419.550781 146.578125 C 439.261719 141.941406 459.015625 137.511719 478.742188 132.914062 C 496.921875 128.648438 515.03125 124.054688 533.226562 119.835938 C 556.035156 114.570312 578.878906 109.46875 601.757812 104.542969 C 608.082031 103.179688 614 101.214844 619.640625 98.796875 L 631.125 94.160156 C 632.226562 94.058594 633.402344 93.703125 634.542969 92.996094 C 634.796875 92.84375 635.046875 92.667969 635.289062 92.476562 L 635.292969 92.476562 L 635.292969 92.472656 C 635.882812 92.015625 636.4375 91.460938 636.953125 90.816406 C 637.640625 89.882812 638.265625 88.777344 638.617188 87.492188 C 639.070312 85.914062 639.230469 84.25 639.097656 82.617188 Z M 625.21875 88.789062 C 624.898438 88.734375 624.546875 88.722656 624.128906 88.804688 C 622.40625 89.144531 620.671875 89.449219 618.945312 89.769531 C 618.945312 89.769531 618.941406 89.769531 618.941406 89.769531 L 618.941406 89.773438 C 617.351562 90.066406 615.761719 90.378906 614.191406 90.75 C 606.359375 92.585938 598.59375 94.699219 590.746094 96.4375 C 581.433594 98.507812 572.054688 100.261719 562.71875 102.230469 C 548.78125 105.160156 534.84375 108.121094 520.929688 111.1875 C 513.078125 112.90625 505.234375 114.660156 497.390625 116.4375 L 473.871094 121.785156 C 468.292969 123.066406 462.699219 124.28125 457.128906 125.59375 C 440.730469 129.410156 424.601562 134.203125 408.207031 138.128906 C 400.492188 140 392.789062 141.910156 385.109375 143.996094 L 373.59375 147.09375 L 362.085938 150.296875 C 360.824219 150.648438 359.558594 150.96875 358.304688 151.335938 C 354.804688 152.339844 351.308594 153.46875 347.816406 154.585938 L 342.578125 156.257812 L 339.957031 157.09375 L 339.355469 157.28125 C 339.300781 157.292969 339.246094 157.308594 339.191406 157.332031 C 339.136719 157.367188 339.078125 157.347656 339.027344 157.367188 C 338.972656 157.390625 338.917969 157.398438 338.859375 157.390625 C 338.636719 157.425781 338.394531 157.40625 338.125 157.328125 C 337.863281 157.253906 337.566406 157.148438 337.296875 156.949219 C 336.738281 156.585938 336.28125 156 336.023438 155.375 C 336 155.292969 335.980469 155.210938 335.949219 155.132812 C 335.929688 155.070312 335.925781 155.105469 335.890625 154.964844 L 335.808594 154.632812 L 335.46875 153.3125 L 334.800781 150.675781 L 333.480469 145.390625 L 332.082031 139.613281 L 331.734375 138.167969 L 331.5625 137.445312 C 331.542969 137.34375 331.492188 137.15625 331.492188 137.128906 L 331.476562 136.996094 C 331.417969 136.636719 331.402344 136.28125 331.472656 135.9375 C 331.609375 135.253906 331.96875 134.589844 332.5 134.140625 C 332.765625 133.921875 333.058594 133.75 333.371094 133.625 C 333.539062 133.550781 333.679688 133.53125 333.8125 133.488281 L 335.210938 133.191406 L 358.476562 128.269531 C 366.347656 126.566406 374.214844 124.820312 382.050781 122.957031 C 385.578125 122.125 388.996094 120.832031 392.523438 119.988281 C 404.390625 117.160156 416.296875 114.558594 428.082031 111.335938 C 438.601562 108.433594 449.316406 106.105469 459.957031 103.570312 C 470.085938 101.183594 480.25 98.929688 490.367188 96.488281 C 499.160156 94.386719 507.878906 91.984375 516.671875 89.871094 L 534.117188 85.71875 C 539.9375 84.34375 545.757812 82.980469 551.558594 81.507812 C 559.761719 79.441406 567.960938 77.367188 576.140625 75.171875 L 588.417969 71.90625 L 600.679688 68.523438 C 602.183594 68.109375 603.730469 67.816406 605.214844 67.355469 L 620.09375 62.464844 L 620.308594 62.390625 L 620.386719 62.371094 C 620.433594 62.355469 620.484375 62.339844 620.53125 62.316406 C 620.632812 62.277344 620.734375 62.28125 620.832031 62.238281 C 620.933594 62.230469 621.035156 62.222656 621.140625 62.203125 C 621.25 62.21875 621.355469 62.191406 621.46875 62.210938 C 621.914062 62.246094 622.410156 62.40625 622.882812 62.695312 C 623.355469 62.976562 623.789062 63.394531 624.101562 63.878906 C 624.253906 64.125 624.398438 64.378906 624.492188 64.652344 L 624.570312 64.855469 C 624.601562 64.921875 624.652344 65.144531 624.695312 65.28125 L 624.949219 66.21875 C 626.324219 71.230469 627.464844 76.320312 628.789062 81.351562 C 628.929688 81.878906 629.074219 82.40625 629.214844 82.925781 C 629.265625 83.0625 629.304688 83.199219 629.324219 83.339844 C 629.367188 83.476562 629.394531 83.617188 629.410156 83.757812 C 629.484375 84.214844 629.507812 84.695312 629.5 85.195312 C 628.539062 87.019531 626.914062 88.125 625.21875 88.789062 Z M 452.820312 93.339844 C 452.859375 92.824219 452.835938 92.3125 452.90625 91.800781 L 453.125 90.289062 C 453.207031 89.148438 453.566406 88.054688 453.773438 86.953125 C 453.867188 86.402344 454.117188 85.882812 454.273438 85.347656 C 454.472656 84.820312 454.585938 84.273438 454.835938 83.769531 L 455.863281 81.625 C 456.160156 81.121094 456.398438 80.597656 456.605469 80.054688 C 456.714844 79.785156 456.792969 79.5 456.910156 79.230469 L 457.277344 78.429688 C 457.523438 77.898438 457.75 77.34375 458.042969 76.832031 C 458.371094 76.339844 458.726562 75.859375 459.128906 75.421875 C 459.320312 75.21875 459.492188 74.996094 459.683594 74.796875 L 460.28125 74.203125 C 460.667969 73.796875 461.039062 73.382812 461.402344 72.960938 L 462.613281 71.796875 C 463.015625 71.40625 463.410156 71.007812 463.875 70.6875 C 464.019531 70.578125 464.1875 70.492188 464.320312 70.363281 L 465.4375 69.269531 L 466.644531 68.273438 C 467.433594 67.566406 468.351562 67.050781 469.28125 66.566406 C 469.78125 66.28125 470.332031 66.105469 470.878906 65.9375 L 472.523438 65.453125 L 474.207031 65.167969 C 474.765625 65.074219 475.3125 64.949219 475.875 64.921875 C 476.4375 64.863281 476.996094 64.796875 477.550781 64.710938 C 478.101562 64.597656 478.652344 64.621094 479.199219 64.527344 C 479.6875 64.472656 480.15625 63.898438 480.660156 63.882812 C 481.5 63.878906 482.347656 63.855469 483.179688 63.90625 C 483.59375 63.949219 484.011719 63.976562 484.433594 63.976562 C 484.851562 63.988281 485.289062 63.921875 485.710938 63.929688 C 486.476562 63.917969 487.25 63.980469 487.976562 64.203125 C 488.695312 64.460938 489.40625 64.71875 490.109375 65 C 490.757812 65.316406 491.390625 65.667969 492.019531 66.003906 C 492.613281 66.417969 493.195312 66.835938 493.8125 67.199219 C 494.339844 67.527344 494.847656 67.902344 495.390625 68.222656 C 495.652344 68.398438 495.941406 68.539062 496.183594 68.746094 C 496.425781 68.949219 496.664062 69.160156 496.890625 69.382812 C 497.191406 69.675781 497.484375 69.976562 497.773438 70.28125 C 498.042969 70.605469 498.28125 70.964844 498.535156 71.300781 L 499.292969 72.3125 C 499.53125 72.664062 499.746094 73.03125 499.992188 73.378906 C 501.402344 75.304688 502.550781 77.472656 503.542969 79.726562 C 503.621094 79.941406 503.585938 80.203125 503.707031 80.394531 C 503.800781 80.550781 503.90625 80.703125 504.007812 80.855469 L 503.832031 80.898438 C 486.835938 85.109375 469.832031 89.324219 452.8125 93.472656 Z M 569.6875 232.164062 C 569.585938 233.683594 569.289062 235.179688 569.246094 236.707031 C 569.175781 239.753906 569.230469 242.808594 569.207031 245.855469 C 569.203125 246.3125 569.027344 246.753906 568.980469 247.207031 L 567.4375 261.988281 C 567.046875 265.472656 566.417969 268.929688 566.050781 272.417969 C 565.765625 275.054688 565.742188 277.71875 565.480469 280.359375 C 565.183594 283.398438 564.71875 286.425781 564.421875 289.464844 C 564.113281 292.660156 563.636719 295.851562 563.757812 299.078125 C 563.886719 302.6875 563.382812 306.238281 563.148438 309.8125 C 563.082031 310.875 563.46875 311.976562 563.398438 313.039062 C 563.246094 315.398438 562.976562 317.75 562.675781 320.097656 C 562.082031 324.722656 561.289062 329.335938 560.886719 333.976562 C 560.515625 338.230469 560.570312 342.519531 560.433594 346.792969 C 560.417969 347.175781 560.355469 347.554688 560.324219 347.933594 C 559.925781 352.578125 559.726562 357.238281 559.105469 361.859375 C 558.445312 366.769531 558.839844 371.753906 558.257812 376.664062 L 557.617188 381.671875 L 555.914062 395.753906 C 555.378906 399.910156 554.773438 404.0625 554.167969 408.210938 C 553.761719 410.992188 553.164062 413.757812 552.886719 416.546875 C 552.652344 418.898438 552.800781 421.28125 552.6875 423.644531 C 552.640625 424.632812 552.332031 425.605469 552.167969 426.589844 C 551.957031 427.878906 545.246094 426.621094 544.644531 425.753906 C 542.957031 423.324219 542.0625 420.882812 542.355469 418.394531 C 543.164062 411.546875 543.867188 404.6875 544.476562 397.824219 C 544.957031 392.347656 545.082031 386.839844 545.636719 381.367188 C 546.238281 375.433594 547.152344 369.523438 547.9375 363.601562 C 547.988281 363.222656 548.15625 362.84375 548.074219 362.460938 C 547.050781 357.636719 548.828125 353.023438 548.992188 348.285156 C 549.207031 342.007812 549.800781 335.757812 550.433594 329.511719 C 550.886719 324.949219 551.667969 320.414062 552.253906 315.859375 C 552.371094 314.957031 552.59375 314 552.101562 313.113281 C 551.085938 311.296875 551.203125 309.550781 551.324219 307.800781 C 551.601562 303.824219 552.089844 299.867188 552.398438 295.894531 C 552.964844 288.714844 553.414062 281.523438 554.039062 274.339844 C 554.429688 269.679688 555.039062 265.035156 555.496094 260.375 L 556.457031 250.414062 C 556.773438 247.09375 557.109375 243.773438 557.507812 240.453125 C 557.628906 239.40625 558.421875 238.441406 558.699219 237.410156 C 559.097656 235.917969 559.367188 234.402344 559.628906 232.886719 C 559.832031 231.671875 559.894531 230.433594 560.066406 229.214844 C 560.203125 228.222656 561.363281 227.597656 562.96875 227.1875 C 564.445312 226.8125 566.066406 227.089844 567.257812 227.875 C 569.355469 229.257812 569.789062 230.707031 569.6875 232.164062 Z M 418.097656 422.375 C 418.015625 423.957031 418.070312 425.535156 418.160156 427.105469 C 418.230469 428.363281 418.445312 429.609375 418.554688 430.867188 C 418.640625 431.882812 417.652344 432.777344 416.183594 433.5625 C 414.824219 434.285156 413.1875 434.390625 411.851562 433.875 C 409.496094 432.96875 408.746094 431.582031 408.515625 430.074219 C 408.273438 428.5 408.21875 426.902344 407.933594 425.335938 C 407.363281 422.210938 406.664062 419.101562 406.070312 415.980469 C 405.980469 415.511719 406.066406 415.027344 406.023438 414.554688 C 405.566406 409.414062 405.074219 404.28125 404.722656 399.140625 C 404.464844 395.503906 404.449219 391.851562 404.214844 388.214844 C 404.027344 385.464844 403.601562 382.734375 403.402344 379.988281 C 403.167969 376.824219 403.148438 373.644531 402.933594 370.480469 C 402.71875 367.152344 402.675781 363.804688 402.054688 360.515625 C 401.367188 356.824219 401.308594 353.105469 401.015625 349.390625 C 400.921875 348.289062 400.378906 347.214844 400.289062 346.109375 C 400.101562 343.65625 400.027344 341.191406 399.996094 338.726562 C 399.949219 333.859375 400.113281 329.007812 399.996094 324.078125 C 399.96875 322.949219 399.941406 321.785156 399.882812 320.636719 C 399.824219 319.496094 399.765625 318.539062 399.675781 317.453125 L 399.050781 310.960938 C 399.011719 310.570312 399.027344 310.179688 399.007812 309.785156 C 398.796875 305.011719 398.347656 300.21875 398.308594 295.40625 C 398.261719 290.292969 397.160156 285.253906 397.011719 280.144531 L 396.910156 274.929688 L 396.511719 260.269531 C 396.425781 255.933594 396.394531 251.59375 396.375 247.257812 C 396.363281 244.347656 396.539062 241.429688 396.394531 238.53125 C 396.273438 236.089844 395.765625 233.675781 395.523438 231.242188 C 395.421875 230.21875 395.582031 229.179688 395.59375 228.148438 C 395.609375 226.796875 402.4375 227.074219 403.164062 227.871094 C 405.195312 230.105469 406.445312 232.472656 406.53125 235.0625 C 406.761719 242.195312 407.089844 249.320312 407.515625 256.441406 C 407.855469 262.125 408.550781 267.785156 408.808594 273.472656 C 409.089844 279.644531 409.046875 285.839844 409.117188 292.027344 C 409.121094 292.425781 409.003906 292.835938 409.140625 293.21875 C 410.847656 298.027344 409.726562 303.023438 410.195312 307.933594 C 410.511719 311.1875 410.703125 314.453125 410.789062 317.796875 L 410.828125 322.679688 L 410.898438 327.449219 C 411.011719 332.140625 410.839844 336.871094 410.914062 341.597656 C 410.929688 342.539062 410.84375 343.546875 411.460938 344.378906 C 412.722656 346.082031 412.871094 347.882812 413.007812 349.679688 C 413.324219 353.773438 413.457031 357.878906 413.773438 361.976562 C 414.347656 369.378906 415.089844 376.769531 415.710938 384.167969 C 416.125 388.96875 416.351562 393.785156 416.757812 398.585938 C 417.324219 405.425781 418.039062 412.246094 418.632812 419.074219 C 418.730469 420.144531 418.15625 421.277344 418.097656 422.375 Z M 486.21875 391.769531 C 486.238281 398.34375 486.355469 404.917969 486.328125 411.492188 C 486.320312 412.527344 485.644531 413.558594 485.484375 414.597656 C 485.25 416.101562 485.164062 417.613281 485.09375 419.121094 C 485.039062 420.332031 485.128906 421.542969 485.109375 422.753906 C 485.09375 423.734375 484.019531 424.488281 482.476562 425.089844 C 481.054688 425.644531 479.414062 425.582031 478.136719 424.960938 C 475.886719 423.867188 475.277344 422.484375 475.199219 421.039062 C 475.117188 419.523438 475.222656 418.007812 475.085938 416.496094 C 474.8125 413.484375 474.414062 410.472656 474.09375 407.464844 C 474.046875 407.011719 474.175781 406.558594 474.175781 406.109375 C 474.175781 401.195312 474.117188 396.285156 474.179688 391.375 C 474.222656 387.902344 474.488281 384.425781 474.53125 380.953125 C 474.5625 378.328125 474.328125 375.703125 474.335938 373.074219 C 474.339844 370.050781 474.53125 367.027344 474.542969 364 C 474.554688 360.824219 474.734375 357.636719 474.328125 354.46875 C 473.875 350.921875 474.054688 347.378906 473.972656 343.835938 C 473.945312 342.78125 473.464844 341.730469 473.441406 340.675781 C 473.386719 338.335938 473.449219 335.996094 473.542969 333.652344 C 473.730469 329.042969 474.132812 324.433594 474.136719 319.820312 C 474.136719 315.597656 473.730469 311.375 473.507812 307.148438 C 473.488281 306.773438 473.519531 306.394531 473.519531 306.015625 C 473.523438 301.40625 473.347656 296.792969 473.582031 292.1875 C 473.832031 287.292969 473.046875 282.414062 473.226562 277.523438 C 473.285156 275.863281 473.390625 274.199219 473.460938 272.535156 C 473.652344 267.863281 473.804688 263.191406 474.035156 258.519531 C 474.238281 254.378906 474.511719 250.238281 474.792969 246.097656 C 474.980469 243.324219 475.359375 240.554688 475.421875 237.78125 C 475.472656 235.445312 475.136719 233.109375 475.070312 230.773438 C 475.042969 229.792969 475.273438 228.808594 475.359375 227.828125 C 475.472656 226.542969 482.261719 227.269531 482.929688 228.078125 C 484.796875 230.34375 485.875 232.683594 485.777344 235.15625 C 485.5 241.964844 485.332031 248.773438 485.273438 255.582031 C 485.222656 261.019531 485.539062 266.453125 485.425781 271.886719 C 485.300781 277.78125 484.867188 283.671875 484.570312 289.566406 C 484.550781 289.945312 484.410156 290.332031 484.523438 290.703125 C 485.945312 295.371094 484.546875 300.058594 484.78125 304.738281 C 485.09375 310.9375 485.023438 317.140625 484.929688 323.339844 C 484.863281 327.871094 484.476562 332.402344 484.292969 336.929688 C 484.257812 337.832031 484.117188 338.792969 484.6875 339.625 C 485.855469 341.320312 485.894531 343.050781 485.925781 344.78125 C 486.003906 348.714844 485.875 352.652344 485.925781 356.585938 C 486.015625 363.699219 486.226562 370.8125 486.300781 377.921875 C 486.351562 382.535156 486.207031 387.152344 486.21875 391.769531 Z M 486.21875 391.769531 " fill-opacity="1" fill-rule="nonzero"/></g></svg>