<svg xmlns="http://www.w3.org/2000/svg" xmlns:xlink="http://www.w3.org/1999/xlink" width="1280" zoomAndPan="magnify" viewBox="0 0 960 540.000001" height="720" preserveAspectRatio="xMidYMid meet" version="1.0"><defs><clipPath id="d5a69b74d5"><path d="M 321 419 L 340 419 L 340 471.289062 L 321 471.289062 Z M 321 419 " clip-rule="nonzero"/></clipPath><clipPath id="71f92b9581"><path d="M 135 419 L 154 419 L 154 471.289062 L 135 471.289062 Z M 135 419 " clip-rule="nonzero"/></clipPath><clipPath id="4ff88ad15e"><path d="M 139.210938 149.851562 L 336.320312 149.851562 L 336.320312 191 L 139.210938 191 Z M 139.210938 149.851562 " clip-rule="nonzero"/></clipPath><clipPath id="2e8abba576"><path d="M 336.128906 164.980469 C 336.128906 156.703125 310.375 149.988281 303.144531 149.988281 L 171.824219 149.988281 C 164.597656 149.988281 139.339844 156.703125 139.339844 164.980469 L 158.726562 444.414062 C 158.726562 452.6875 164.597656 459.40625 171.824219 459.40625 L 303.144531 459.40625 C 310.375 459.40625 316.242188 452.6875 316.242188 444.414062 Z M 336.128906 164.980469 " clip-rule="evenodd"/></clipPath><clipPath id="2c3f6df219"><path d="M 273 168 L 336.320312 168 L 336.320312 459.617188 L 273 459.617188 Z M 273 168 " clip-rule="nonzero"/></clipPath><clipPath id="b68fd9ab62"><path d="M 336.128906 164.980469 C 336.128906 156.703125 310.375 149.988281 303.144531 149.988281 L 171.824219 149.988281 C 164.597656 149.988281 139.339844 156.703125 139.339844 164.980469 L 158.726562 444.414062 C 158.726562 452.6875 164.597656 459.40625 171.824219 459.40625 L 303.144531 459.40625 C 310.375 459.40625 316.242188 452.6875 316.242188 444.414062 Z M 336.128906 164.980469 " clip-rule="evenodd"/></clipPath><clipPath id="2a285b6117"><path d="M 139.210938 168 L 201 168 L 201 459.617188 L 139.210938 459.617188 Z M 139.210938 168 " clip-rule="nonzero"/></clipPath><clipPath id="1ed9165b0a"><path d="M 336.128906 164.980469 C 336.128906 156.703125 310.375 149.988281 303.144531 149.988281 L 171.824219 149.988281 C 164.597656 149.988281 139.339844 156.703125 139.339844 164.980469 L 158.726562 444.414062 C 158.726562 452.6875 164.597656 459.40625 171.824219 459.40625 L 303.144531 459.40625 C 310.375 459.40625 316.242188 452.6875 316.242188 444.414062 Z M 336.128906 164.980469 " clip-rule="evenodd"/></clipPath><clipPath id="fd97121b36"><path d="M 287 86 L 340 86 L 340 150 L 287 150 Z M 287 86 " clip-rule="nonzero"/></clipPath><clipPath id="2b05034a5d"><path d="M 339.988281 149.996094 L 135.445312 149.996094 C 135.445312 149.996094 172.40625 78.125 182.058594 73.347656 C 191.714844 68.566406 282.59375 67.785156 292.246094 72.566406 C 301.898438 77.34375 339.988281 149.996094 339.988281 149.996094 Z M 339.988281 149.996094 " clip-rule="evenodd"/></clipPath><clipPath id="87a5187823"><path d="M 135.28125 78 L 186 78 L 186 150 L 135.28125 150 Z M 135.28125 78 " clip-rule="nonzero"/></clipPath><clipPath id="9e61949e84"><path d="M 339.988281 149.996094 L 135.445312 149.996094 C 135.445312 149.996094 172.40625 78.125 182.058594 73.347656 C 191.714844 68.566406 282.59375 67.785156 292.246094 72.566406 C 301.898438 77.34375 339.988281 149.996094 339.988281 149.996094 Z M 339.988281 149.996094 " clip-rule="evenodd"/></clipPath><clipPath id="0c105fafa6"><path d="M 131.464844 141 L 344 141 L 344 186 L 131.464844 186 Z M 131.464844 141 " clip-rule="nonzero"/></clipPath><clipPath id="662dfa1815"><path d="M 806 419 L 825 419 L 825 471.289062 L 806 471.289062 Z M 806 419 " clip-rule="nonzero"/></clipPath><clipPath id="09eddfc546"><path d="M 620 419 L 639 419 L 639 471.289062 L 620 471.289062 Z M 620 419 " clip-rule="nonzero"/></clipPath><clipPath id="e3b5414794"><path d="M 624.152344 149.851562 L 821.261719 149.851562 L 821.261719 191 L 624.152344 191 Z M 624.152344 149.851562 " clip-rule="nonzero"/></clipPath><clipPath id="d5beeb865c"><path d="M 821.070312 164.980469 C 821.070312 156.703125 795.316406 149.988281 788.085938 149.988281 L 656.769531 149.988281 C 649.539062 149.988281 624.28125 156.703125 624.28125 164.980469 L 643.667969 444.414062 C 643.667969 452.6875 649.539062 459.40625 656.769531 459.40625 L 788.085938 459.40625 C 795.316406 459.40625 801.183594 452.6875 801.183594 444.414062 Z M 821.070312 164.980469 " clip-rule="evenodd"/></clipPath><clipPath id="f61a1a597e"><path d="M 758 168 L 821.261719 168 L 821.261719 459.617188 L 758 459.617188 Z M 758 168 " clip-rule="nonzero"/></clipPath><clipPath id="da3d5f4a4b"><path d="M 821.070312 164.980469 C 821.070312 156.703125 795.316406 149.988281 788.085938 149.988281 L 656.769531 149.988281 C 649.539062 149.988281 624.28125 156.703125 624.28125 164.980469 L 643.667969 444.414062 C 643.667969 452.6875 649.539062 459.40625 656.769531 459.40625 L 788.085938 459.40625 C 795.316406 459.40625 801.183594 452.6875 801.183594 444.414062 Z M 821.070312 164.980469 " clip-rule="evenodd"/></clipPath><clipPath id="c25db236dc"><path d="M 624.152344 168 L 686 168 L 686 459.617188 L 624.152344 459.617188 Z M 624.152344 168 " clip-rule="nonzero"/></clipPath><clipPath id="7c74cc08f5"><path d="M 821.070312 164.980469 C 821.070312 156.703125 795.316406 149.988281 788.085938 149.988281 L 656.769531 149.988281 C 649.539062 149.988281 624.28125 156.703125 624.28125 164.980469 L 643.667969 444.414062 C 643.667969 452.6875 649.539062 459.40625 656.769531 459.40625 L 788.085938 459.40625 C 795.316406 459.40625 801.183594 452.6875 801.183594 444.414062 Z M 821.070312 164.980469 " clip-rule="evenodd"/></clipPath><clipPath id="ca1561bbe4"><path d="M 772 86 L 824.960938 86 L 824.960938 150 L 772 150 Z M 772 86 " clip-rule="nonzero"/></clipPath><clipPath id="a053b1ce0e"><path d="M 824.933594 149.996094 L 620.386719 149.996094 C 620.386719 149.996094 657.351562 78.125 667.003906 73.347656 C 676.65625 68.566406 767.535156 67.785156 777.191406 72.566406 C 786.84375 77.34375 824.933594 149.996094 824.933594 149.996094 Z M 824.933594 149.996094 " clip-rule="evenodd"/></clipPath><clipPath id="6732340f10"><path d="M 620.222656 78 L 671 78 L 671 150 L 620.222656 150 Z M 620.222656 78 " clip-rule="nonzero"/></clipPath><clipPath id="4c6f0d9c8f"><path d="M 824.933594 149.996094 L 620.386719 149.996094 C 620.386719 149.996094 657.351562 78.125 667.003906 73.347656 C 676.65625 68.566406 767.535156 67.785156 777.191406 72.566406 C 786.84375 77.34375 824.933594 149.996094 824.933594 149.996094 Z M 824.933594 149.996094 " clip-rule="evenodd"/></clipPath><clipPath id="7e961db590"><path d="M 616 141 L 828.421875 141 L 828.421875 186 L 616 186 Z M 616 141 " clip-rule="nonzero"/></clipPath><clipPath id="95794e8ff4"><path d="M 566 419 L 585 419 L 585 471.289062 L 566 471.289062 Z M 566 419 " clip-rule="nonzero"/></clipPath><clipPath id="56bb0e2478"><path d="M 380 419 L 399 419 L 399 471.289062 L 380 471.289062 Z M 380 419 " clip-rule="nonzero"/></clipPath><clipPath id="461871a0b6"><path d="M 384 149.851562 L 581 149.851562 L 581 191 L 384 191 Z M 384 149.851562 " clip-rule="nonzero"/></clipPath><clipPath id="c0bb357dfa"><path d="M 580.855469 164.980469 C 580.855469 156.703125 555.101562 149.988281 547.871094 149.988281 L 416.554688 149.988281 C 409.324219 149.988281 384.066406 156.703125 384.066406 164.980469 L 403.453125 444.414062 C 403.453125 452.6875 409.324219 459.40625 416.554688 459.40625 L 547.871094 459.40625 C 555.101562 459.40625 560.96875 452.6875 560.96875 444.414062 Z M 580.855469 164.980469 " clip-rule="evenodd"/></clipPath><clipPath id="683a2b924c"><path d="M 517 168 L 581 168 L 581 459.617188 L 517 459.617188 Z M 517 168 " clip-rule="nonzero"/></clipPath><clipPath id="d321030346"><path d="M 580.855469 164.980469 C 580.855469 156.703125 555.101562 149.988281 547.871094 149.988281 L 416.554688 149.988281 C 409.324219 149.988281 384.066406 156.703125 384.066406 164.980469 L 403.453125 444.414062 C 403.453125 452.6875 409.324219 459.40625 416.554688 459.40625 L 547.871094 459.40625 C 555.101562 459.40625 560.96875 452.6875 560.96875 444.414062 Z M 580.855469 164.980469 " clip-rule="evenodd"/></clipPath><clipPath id="6a9f7597e1"><path d="M 384 168 L 446 168 L 446 459.617188 L 384 459.617188 Z M 384 168 " clip-rule="nonzero"/></clipPath><clipPath id="6acd5b6e48"><path d="M 580.855469 164.980469 C 580.855469 156.703125 555.101562 149.988281 547.871094 149.988281 L 416.554688 149.988281 C 409.324219 149.988281 384.066406 156.703125 384.066406 164.980469 L 403.453125 444.414062 C 403.453125 452.6875 409.324219 459.40625 416.554688 459.40625 L 547.871094 459.40625 C 555.101562 459.40625 560.96875 452.6875 560.96875 444.414062 Z M 580.855469 164.980469 " clip-rule="evenodd"/></clipPath><clipPath id="f25a5de366"><path d="M 532 86 L 584.746094 86 L 584.746094 150 L 532 150 Z M 532 86 " clip-rule="nonzero"/></clipPath><clipPath id="799f6d8ba3"><path d="M 584.71875 149.996094 L 380.171875 149.996094 C 380.171875 149.996094 417.136719 78.125 426.789062 73.347656 C 436.441406 68.566406 527.320312 67.785156 536.976562 72.566406 C 546.628906 77.34375 584.71875 149.996094 584.71875 149.996094 Z M 584.71875 149.996094 " clip-rule="evenodd"/></clipPath><clipPath id="08d0fee671"><path d="M 380.007812 78 L 431 78 L 431 150 L 380.007812 150 Z M 380.007812 78 " clip-rule="nonzero"/></clipPath><clipPath id="259a658230"><path d="M 584.71875 149.996094 L 380.171875 149.996094 C 380.171875 149.996094 417.136719 78.125 426.789062 73.347656 C 436.441406 68.566406 527.320312 67.785156 536.976562 72.566406 C 546.628906 77.34375 584.71875 149.996094 584.71875 149.996094 Z M 584.71875 149.996094 " clip-rule="evenodd"/></clipPath></defs><g clip-path="url(#d5a69b74d5)"><path fill="#000000" d="M 339.59375 427.964844 C 339.59375 423.035156 335.59375 419.03125 330.664062 419.03125 C 325.738281 419.03125 321.738281 423.035156 321.738281 427.964844 L 321.738281 462.355469 C 321.738281 467.285156 325.738281 471.285156 330.664062 471.285156 C 335.59375 471.285156 339.59375 467.285156 339.59375 462.355469 Z M 339.59375 427.964844 " fill-opacity="1" fill-rule="evenodd"/></g><path fill="#000000" d="M 298.40625 439 C 295.015625 439 292.261719 441.753906 292.261719 445.144531 C 292.261719 448.539062 295.015625 451.292969 298.40625 451.292969 L 333.441406 451.292969 C 336.832031 451.292969 339.585938 448.539062 339.585938 445.144531 C 339.585938 441.753906 336.832031 439 333.441406 439 Z M 298.40625 439 " fill-opacity="1" fill-rule="evenodd"/><g clip-path="url(#71f92b9581)"><path fill="#000000" d="M 135.660156 427.964844 C 135.660156 423.035156 139.664062 419.03125 144.589844 419.03125 C 149.515625 419.03125 153.519531 423.035156 153.519531 427.964844 L 153.519531 462.355469 C 153.519531 467.285156 149.515625 471.285156 144.589844 471.285156 C 139.664062 471.285156 135.660156 467.285156 135.660156 462.355469 Z M 135.660156 427.964844 " fill-opacity="1" fill-rule="evenodd"/></g><path fill="#000000" d="M 176.433594 439 C 179.824219 439 182.578125 441.753906 182.578125 445.144531 C 182.578125 448.539062 179.824219 451.292969 176.433594 451.292969 L 141.816406 451.292969 C 138.421875 451.292969 135.671875 448.539062 135.671875 445.144531 C 135.671875 441.753906 138.421875 439 141.816406 439 Z M 176.433594 439 " fill-opacity="1" fill-rule="evenodd"/><path fill="#ff3400" d="M 336.128906 164.980469 C 336.128906 156.703125 310.375 149.988281 303.144531 149.988281 L 171.824219 149.988281 C 164.597656 149.988281 139.339844 156.703125 139.339844 164.980469 L 158.726562 444.414062 C 158.726562 452.6875 164.597656 459.40625 171.824219 459.40625 L 303.144531 459.40625 C 310.375 459.40625 316.242188 452.6875 316.242188 444.414062 Z M 336.128906 164.980469 " fill-opacity="1" fill-rule="evenodd"/><g clip-path="url(#4ff88ad15e)"><g clip-path="url(#2e8abba576)"><path fill="#000000" d="M 343.734375 157.71875 C 343.734375 151.664062 338.820312 146.75 332.765625 146.75 L 142.703125 146.75 C 136.648438 146.75 131.734375 151.664062 131.734375 157.71875 L 131.734375 179.660156 C 131.734375 185.714844 136.648438 190.632812 142.703125 190.632812 L 332.765625 190.632812 C 338.820312 190.632812 343.734375 185.714844 343.734375 179.660156 Z M 343.734375 157.71875 " fill-opacity="0.1" fill-rule="evenodd"/></g></g><g clip-path="url(#2c3f6df219)"><g clip-path="url(#b68fd9ab62)"><path fill="#000000" d="M 273.21875 463.183594 L 326.660156 459.40625 L 364.894531 175.886719 L 319.539062 168.691406 C 319.539062 168.691406 307.550781 399.292969 300.78125 443.484375 C 299.070312 454.648438 273.21875 463.183594 273.21875 463.183594 Z M 273.21875 463.183594 " fill-opacity="0.1" fill-rule="evenodd"/></g></g><g clip-path="url(#2a285b6117)"><g clip-path="url(#1ed9165b0a)"><path fill="#ff5a31" d="M 200.484375 463.183594 L 147.046875 459.40625 L 108.8125 175.886719 L 154.164062 168.691406 C 154.164062 168.691406 166.15625 399.292969 172.925781 443.484375 C 174.636719 454.648438 200.484375 463.183594 200.484375 463.183594 Z M 200.484375 463.183594 " fill-opacity="0.5" fill-rule="evenodd"/></g></g><path fill="#ff3400" d="M 339.988281 149.996094 L 135.445312 149.996094 C 135.445312 149.996094 172.40625 78.125 182.058594 73.347656 C 191.714844 68.566406 282.59375 67.785156 292.246094 72.566406 C 301.898438 77.34375 339.988281 149.996094 339.988281 149.996094 Z M 339.988281 149.996094 " fill-opacity="1" fill-rule="evenodd"/><g clip-path="url(#fd97121b36)"><g clip-path="url(#2b05034a5d)"><path fill="#000000" d="M 303.25 86.175781 C 302.960938 86.453125 304.292969 88.582031 304.417969 88.804688 C 306.015625 91.640625 307.652344 94.449219 309.339844 97.234375 C 313.464844 104.058594 316.652344 111.476562 316.976562 119.542969 C 317.410156 130.46875 313.867188 142.492188 304.65625 149.097656 C 301.222656 151.5625 297.316406 153.261719 293.335938 154.640625 C 292.71875 154.855469 286.691406 156.304688 287.921875 157.148438 C 293.585938 161.015625 305.773438 160.53125 312.011719 159.632812 C 339.023438 155.738281 358.882812 134.195312 346.601562 106.917969 " fill-opacity="0.08" fill-rule="evenodd"/></g></g><g clip-path="url(#87a5187823)"><g clip-path="url(#9e61949e84)"><path fill="#000000" d="M 170.421875 78.957031 C 170.714844 79.234375 169.382812 81.367188 169.257812 81.585938 C 167.660156 84.421875 166.019531 87.230469 164.335938 90.015625 C 160.210938 96.839844 157.023438 104.257812 156.699219 112.324219 C 156.265625 123.253906 159.804688 135.273438 169.019531 141.878906 C 172.453125 144.34375 176.355469 146.046875 180.339844 147.421875 C 180.953125 147.636719 186.984375 149.085938 185.753906 149.929688 C 180.089844 153.796875 167.902344 153.3125 161.664062 152.414062 C 134.652344 148.523438 114.789062 126.976562 127.070312 99.703125 " fill-opacity="0.08" fill-rule="evenodd"/></g></g><g clip-path="url(#0c105fafa6)"><path fill="#ff5a31" d="M 343.464844 152.464844 C 343.464844 146.410156 338.550781 141.492188 332.5 141.492188 L 142.441406 141.492188 C 136.386719 141.492188 131.472656 146.410156 131.472656 152.464844 L 131.472656 174.40625 C 131.472656 180.460938 136.386719 185.375 142.441406 185.375 L 332.5 185.375 C 338.550781 185.375 343.464844 180.460938 343.464844 174.40625 Z M 343.464844 152.464844 " fill-opacity="1" fill-rule="evenodd"/></g><path fill="#a62200" d="M 289.894531 101.925781 C 289.894531 97.347656 286.183594 93.632812 281.605469 93.632812 L 193.820312 93.632812 C 189.246094 93.632812 185.53125 97.347656 185.53125 101.925781 L 185.53125 118.507812 C 185.53125 123.085938 189.246094 126.800781 193.820312 126.800781 L 281.605469 126.800781 C 286.183594 126.800781 289.894531 123.085938 289.894531 118.507812 Z M 289.894531 101.925781 " fill-opacity="1" fill-rule="evenodd"/><path fill="#ffffff" d="M 248.292969 268.046875 L 254.664062 275.457031 L 257.402344 273.15625 L 258.582031 287.578125 L 244.578125 283.933594 L 247.132812 281.792969 L 237.226562 271.007812 C 231.71875 275.394531 220.433594 286.824219 220.433594 286.824219 L 212.863281 279.132812 C 212.863281 279.132812 229.300781 262.316406 235.207031 260.46875 C 240.019531 258.960938 248.300781 268.046875 248.300781 268.046875 C 248.300781 268.046875 248.296875 268.046875 248.292969 268.046875 Z M 249.09375 326.609375 L 249.71875 330.132812 L 236.640625 323.941406 L 246.796875 313.632812 L 247.378906 316.917969 L 261.664062 313.730469 C 260.621094 306.765625 256.367188 291.269531 256.367188 291.269531 L 266.8125 288.554688 C 266.8125 288.554688 273.152344 311.207031 271.796875 317.246094 C 270.695312 322.167969 258.691406 324.800781 258.691406 324.800781 C 258.691406 324.800781 258.691406 324.796875 258.695312 324.796875 Z M 203.339844 305.414062 L 206.566406 296.1875 L 203.207031 294.96875 L 215.105469 286.734375 L 218.949219 300.6875 L 215.816406 299.546875 L 211.433594 313.519531 C 217.984375 316.097656 233.523438 320.160156 233.523438 320.160156 L 230.652344 330.5625 C 230.652344 330.5625 207.875 324.730469 203.324219 320.539062 C 199.613281 317.121094 203.335938 305.40625 203.335938 305.40625 C 203.335938 305.40625 203.335938 305.410156 203.339844 305.414062 Z M 203.339844 305.414062 " fill-opacity="1" fill-rule="evenodd"/><g clip-path="url(#662dfa1815)"><path fill="#000000" d="M 824.386719 427.964844 C 824.386719 423.035156 820.386719 419.03125 815.460938 419.03125 C 810.53125 419.03125 806.53125 423.035156 806.53125 427.964844 L 806.53125 462.355469 C 806.53125 467.285156 810.53125 471.285156 815.460938 471.285156 C 820.386719 471.285156 824.386719 467.285156 824.386719 462.355469 Z M 824.386719 427.964844 " fill-opacity="1" fill-rule="evenodd"/></g><path fill="#000000" d="M 783.203125 439 C 779.808594 439 777.058594 441.753906 777.058594 445.144531 C 777.058594 448.539062 779.808594 451.292969 783.203125 451.292969 L 818.234375 451.292969 C 821.628906 451.292969 824.378906 448.539062 824.378906 445.144531 C 824.378906 441.753906 821.628906 439 818.234375 439 Z M 783.203125 439 " fill-opacity="1" fill-rule="evenodd"/><g clip-path="url(#09eddfc546)"><path fill="#000000" d="M 620.457031 427.964844 C 620.457031 423.035156 624.460938 419.03125 629.386719 419.03125 C 634.3125 419.03125 638.316406 423.035156 638.316406 427.964844 L 638.316406 462.355469 C 638.316406 467.285156 634.3125 471.285156 629.386719 471.285156 C 624.460938 471.285156 620.457031 467.285156 620.457031 462.355469 Z M 620.457031 427.964844 " fill-opacity="1" fill-rule="evenodd"/></g><path fill="#000000" d="M 661.226562 439 C 664.617188 439 667.371094 441.753906 667.371094 445.144531 C 667.371094 448.539062 664.617188 451.292969 661.226562 451.292969 L 626.609375 451.292969 C 623.21875 451.292969 620.464844 448.539062 620.464844 445.144531 C 620.464844 441.753906 623.21875 439 626.609375 439 Z M 661.226562 439 " fill-opacity="1" fill-rule="evenodd"/><path fill="#74c91b" d="M 821.070312 164.980469 C 821.070312 156.703125 795.316406 149.988281 788.085938 149.988281 L 656.769531 149.988281 C 649.539062 149.988281 624.28125 156.703125 624.28125 164.980469 L 643.667969 444.414062 C 643.667969 452.6875 649.539062 459.40625 656.769531 459.40625 L 788.085938 459.40625 C 795.316406 459.40625 801.183594 452.6875 801.183594 444.414062 Z M 821.070312 164.980469 " fill-opacity="1" fill-rule="evenodd"/><g clip-path="url(#e3b5414794)"><g clip-path="url(#d5beeb865c)"><path fill="#000000" d="M 828.679688 157.71875 C 828.679688 151.664062 823.761719 146.75 817.710938 146.75 L 627.644531 146.75 C 621.589844 146.75 616.675781 151.664062 616.675781 157.71875 L 616.675781 179.660156 C 616.675781 185.714844 621.589844 190.632812 627.644531 190.632812 L 817.710938 190.632812 C 823.761719 190.632812 828.679688 185.714844 828.679688 179.660156 Z M 828.679688 157.71875 " fill-opacity="0.1" fill-rule="evenodd"/></g></g><g clip-path="url(#f61a1a597e)"><g clip-path="url(#da3d5f4a4b)"><path fill="#000000" d="M 758.164062 463.183594 L 811.605469 459.40625 L 849.839844 175.886719 L 804.484375 168.691406 C 804.484375 168.691406 792.492188 399.292969 785.722656 443.484375 C 784.011719 454.648438 758.164062 463.183594 758.164062 463.183594 Z M 758.164062 463.183594 " fill-opacity="0.1" fill-rule="evenodd"/></g></g><g clip-path="url(#c25db236dc)"><g clip-path="url(#7c74cc08f5)"><path fill="#90e23b" d="M 685.429688 463.183594 L 631.988281 459.40625 L 593.753906 175.886719 L 639.109375 168.691406 C 639.109375 168.691406 651.101562 399.292969 657.867188 443.484375 C 659.578125 454.648438 685.429688 463.183594 685.429688 463.183594 Z M 685.429688 463.183594 " fill-opacity="0.5" fill-rule="evenodd"/></g></g><path fill="#74c91b" d="M 824.933594 149.996094 L 620.386719 149.996094 C 620.386719 149.996094 657.351562 78.125 667.003906 73.347656 C 676.65625 68.566406 767.535156 67.785156 777.191406 72.566406 C 786.84375 77.34375 824.933594 149.996094 824.933594 149.996094 Z M 824.933594 149.996094 " fill-opacity="1" fill-rule="evenodd"/><g clip-path="url(#ca1561bbe4)"><g clip-path="url(#a053b1ce0e)"><path fill="#000000" d="M 788.195312 86.175781 C 787.902344 86.453125 789.234375 88.582031 789.359375 88.804688 C 790.960938 91.640625 792.597656 94.449219 794.285156 97.234375 C 798.40625 104.058594 801.597656 111.476562 801.917969 119.542969 C 802.355469 130.46875 798.8125 142.492188 789.601562 149.097656 C 786.167969 151.5625 782.261719 153.261719 778.28125 154.640625 C 777.664062 154.855469 771.632812 156.304688 772.867188 157.148438 C 778.527344 161.015625 790.714844 160.53125 796.953125 159.632812 C 823.96875 155.738281 843.828125 134.195312 831.546875 106.917969 " fill-opacity="0.08" fill-rule="evenodd"/></g></g><g clip-path="url(#6732340f10)"><g clip-path="url(#4c6f0d9c8f)"><path fill="#000000" d="M 655.367188 78.957031 C 655.65625 79.234375 654.324219 81.367188 654.199219 81.585938 C 652.601562 84.421875 650.964844 87.230469 649.277344 90.015625 C 645.15625 96.839844 641.964844 104.257812 641.644531 112.324219 C 641.207031 123.253906 644.75 135.273438 653.960938 141.878906 C 657.394531 144.34375 661.300781 146.046875 665.28125 147.421875 C 665.898438 147.636719 671.925781 149.085938 670.695312 149.929688 C 665.03125 153.796875 652.847656 153.3125 646.605469 152.414062 C 619.59375 148.523438 599.734375 126.976562 612.015625 99.703125 " fill-opacity="0.08" fill-rule="evenodd"/></g></g><g clip-path="url(#7e961db590)"><path fill="#90e23b" d="M 828.410156 152.464844 C 828.410156 146.410156 823.492188 141.492188 817.441406 141.492188 L 627.382812 141.492188 C 621.332031 141.492188 616.417969 146.410156 616.417969 152.464844 L 616.417969 174.40625 C 616.417969 180.460938 621.332031 185.375 627.382812 185.375 L 817.441406 185.375 C 823.492188 185.375 828.410156 180.460938 828.410156 174.40625 Z M 828.410156 152.464844 " fill-opacity="1" fill-rule="evenodd"/></g><path fill="#1d6514" d="M 774.835938 101.925781 C 774.835938 97.347656 771.125 93.632812 766.550781 93.632812 L 678.761719 93.632812 C 674.1875 93.632812 670.472656 97.347656 670.472656 101.925781 L 670.472656 118.507812 C 670.472656 123.085938 674.1875 126.800781 678.761719 126.800781 L 766.550781 126.800781 C 771.125 126.800781 774.835938 123.085938 774.835938 118.507812 Z M 774.835938 101.925781 " fill-opacity="1" fill-rule="evenodd"/><path fill="#ffffff" d="M 733.234375 268.046875 L 739.609375 275.457031 L 742.34375 273.15625 L 743.523438 287.578125 L 729.523438 283.933594 L 732.074219 281.792969 L 722.171875 271.007812 C 716.660156 275.394531 705.375 286.824219 705.375 286.824219 L 697.804688 279.132812 C 697.804688 279.132812 714.242188 262.316406 720.148438 260.46875 C 724.960938 258.960938 733.242188 268.046875 733.242188 268.046875 C 733.242188 268.046875 733.242188 268.046875 733.234375 268.046875 Z M 734.039062 326.609375 L 734.660156 330.132812 L 721.585938 323.941406 L 731.738281 313.632812 L 732.320312 316.917969 L 746.609375 313.730469 C 745.566406 306.765625 741.3125 291.269531 741.3125 291.269531 L 751.753906 288.554688 C 751.753906 288.554688 758.09375 311.207031 756.742188 317.246094 C 755.636719 322.167969 743.632812 324.800781 743.632812 324.800781 C 743.632812 324.800781 743.636719 324.796875 743.636719 324.796875 Z M 688.28125 305.414062 L 691.511719 296.1875 L 688.152344 294.96875 L 700.046875 286.734375 L 703.894531 300.6875 L 700.761719 299.546875 L 696.375 313.519531 C 702.929688 316.097656 718.46875 320.160156 718.46875 320.160156 L 715.59375 330.5625 C 715.59375 330.5625 692.816406 324.730469 688.265625 320.539062 C 684.554688 317.121094 688.277344 305.40625 688.277344 305.40625 C 688.277344 305.40625 688.28125 305.410156 688.28125 305.414062 Z M 688.28125 305.414062 " fill-opacity="1" fill-rule="evenodd"/><g clip-path="url(#95794e8ff4)"><path fill="#000000" d="M 584.171875 427.964844 C 584.171875 423.035156 580.171875 419.03125 575.246094 419.03125 C 570.316406 419.03125 566.316406 423.035156 566.316406 427.964844 L 566.316406 462.355469 C 566.316406 467.285156 570.316406 471.285156 575.246094 471.285156 C 580.171875 471.285156 584.171875 467.285156 584.171875 462.355469 Z M 584.171875 427.964844 " fill-opacity="1" fill-rule="evenodd"/></g><path fill="#000000" d="M 542.988281 439 C 539.59375 439 536.839844 441.753906 536.839844 445.144531 C 536.839844 448.539062 539.59375 451.292969 542.988281 451.292969 L 578.019531 451.292969 C 581.410156 451.292969 584.164062 448.539062 584.164062 445.144531 C 584.164062 441.753906 581.410156 439 578.019531 439 Z M 542.988281 439 " fill-opacity="1" fill-rule="evenodd"/><g clip-path="url(#56bb0e2478)"><path fill="#000000" d="M 380.242188 427.964844 C 380.242188 423.035156 384.242188 419.03125 389.171875 419.03125 C 394.097656 419.03125 398.097656 423.035156 398.097656 427.964844 L 398.097656 462.355469 C 398.097656 467.285156 394.097656 471.285156 389.171875 471.285156 C 384.242188 471.285156 380.242188 467.285156 380.242188 462.355469 Z M 380.242188 427.964844 " fill-opacity="1" fill-rule="evenodd"/></g><path fill="#000000" d="M 421.011719 439 C 424.402344 439 427.15625 441.753906 427.15625 445.144531 C 427.15625 448.539062 424.402344 451.292969 421.011719 451.292969 L 386.394531 451.292969 C 383.003906 451.292969 380.25 448.539062 380.25 445.144531 C 380.25 441.753906 383.003906 439 386.394531 439 Z M 421.011719 439 " fill-opacity="1" fill-rule="evenodd"/><path fill="#ffb800" d="M 580.855469 164.980469 C 580.855469 156.703125 555.101562 149.988281 547.871094 149.988281 L 416.554688 149.988281 C 409.324219 149.988281 384.066406 156.703125 384.066406 164.980469 L 403.453125 444.414062 C 403.453125 452.6875 409.324219 459.40625 416.554688 459.40625 L 547.871094 459.40625 C 555.101562 459.40625 560.96875 452.6875 560.96875 444.414062 Z M 580.855469 164.980469 " fill-opacity="1" fill-rule="evenodd"/><g clip-path="url(#461871a0b6)"><g clip-path="url(#c0bb357dfa)"><path fill="#000000" d="M 588.464844 157.71875 C 588.464844 151.664062 583.546875 146.75 577.496094 146.75 L 387.429688 146.75 C 381.375 146.75 376.460938 151.664062 376.460938 157.71875 L 376.460938 179.660156 C 376.460938 185.714844 381.375 190.632812 387.429688 190.632812 L 577.496094 190.632812 C 583.546875 190.632812 588.464844 185.714844 588.464844 179.660156 Z M 588.464844 157.71875 " fill-opacity="0.1" fill-rule="evenodd"/></g></g><g clip-path="url(#683a2b924c)"><g clip-path="url(#d321030346)"><path fill="#000000" d="M 517.949219 463.183594 L 571.386719 459.40625 L 609.625 175.886719 L 564.269531 168.691406 C 564.269531 168.691406 552.277344 399.292969 545.507812 443.484375 C 543.796875 454.648438 517.949219 463.183594 517.949219 463.183594 Z M 517.949219 463.183594 " fill-opacity="0.1" fill-rule="evenodd"/></g></g><g clip-path="url(#6a9f7597e1)"><g clip-path="url(#6acd5b6e48)"><path fill="#ffc52e" d="M 445.214844 463.183594 L 391.773438 459.40625 L 353.539062 175.886719 L 398.894531 168.691406 C 398.894531 168.691406 410.886719 399.292969 417.652344 443.484375 C 419.363281 454.648438 445.214844 463.183594 445.214844 463.183594 Z M 445.214844 463.183594 " fill-opacity="0.5" fill-rule="evenodd"/></g></g><path fill="#ffb800" d="M 584.71875 149.996094 L 380.171875 149.996094 C 380.171875 149.996094 417.136719 78.125 426.789062 73.347656 C 436.441406 68.566406 527.320312 67.785156 536.972656 72.566406 C 546.628906 77.34375 584.71875 149.996094 584.71875 149.996094 Z M 584.71875 149.996094 " fill-opacity="1" fill-rule="evenodd"/><g clip-path="url(#f25a5de366)"><g clip-path="url(#799f6d8ba3)"><path fill="#000000" d="M 547.980469 86.175781 C 547.6875 86.453125 549.019531 88.582031 549.144531 88.804688 C 550.742188 91.640625 552.382812 94.449219 554.066406 97.234375 C 558.191406 104.058594 561.378906 111.476562 561.703125 119.542969 C 562.136719 130.46875 558.597656 142.492188 549.386719 149.097656 C 545.949219 151.5625 542.046875 153.261719 538.0625 154.640625 C 537.449219 154.855469 531.417969 156.304688 532.648438 157.148438 C 538.3125 161.015625 550.5 160.53125 556.738281 159.632812 C 583.75 155.738281 603.613281 134.195312 591.332031 106.917969 " fill-opacity="0.08" fill-rule="evenodd"/></g></g><g clip-path="url(#08d0fee671)"><g clip-path="url(#259a658230)"><path fill="#000000" d="M 415.152344 78.957031 C 415.441406 79.234375 414.109375 81.367188 413.984375 81.585938 C 412.386719 84.421875 410.75 87.230469 409.0625 90.015625 C 404.941406 96.839844 401.75 104.257812 401.425781 112.324219 C 400.992188 123.253906 404.535156 135.273438 413.746094 141.878906 C 417.179688 144.34375 421.085938 146.046875 425.066406 147.421875 C 425.683594 147.636719 431.710938 149.085938 430.480469 149.929688 C 424.816406 153.796875 412.632812 153.3125 406.390625 152.414062 C 379.378906 148.523438 359.519531 126.976562 371.800781 99.703125 " fill-opacity="0.08" fill-rule="evenodd"/></g></g><path fill="#ffc52e" d="M 588.195312 152.464844 C 588.195312 146.410156 583.277344 141.492188 577.226562 141.492188 L 387.167969 141.492188 C 381.117188 141.492188 376.203125 146.410156 376.203125 152.464844 L 376.203125 174.40625 C 376.203125 180.460938 381.117188 185.375 387.167969 185.375 L 577.226562 185.375 C 583.277344 185.375 588.195312 180.460938 588.195312 174.40625 Z M 588.195312 152.464844 " fill-opacity="1" fill-rule="evenodd"/><path fill="#7b5b0b" d="M 534.621094 101.925781 C 534.621094 97.347656 530.910156 93.632812 526.335938 93.632812 L 438.546875 93.632812 C 433.972656 93.632812 430.257812 97.347656 430.257812 101.925781 L 430.257812 118.507812 C 430.257812 123.085938 433.972656 126.800781 438.546875 126.800781 L 526.335938 126.800781 C 530.910156 126.800781 534.621094 123.085938 534.621094 118.507812 Z M 534.621094 101.925781 " fill-opacity="1" fill-rule="evenodd"/><path fill="#ffffff" d="M 493.019531 268.046875 L 499.390625 275.457031 L 502.128906 273.15625 L 503.308594 287.578125 L 489.308594 283.933594 L 491.859375 281.792969 L 481.957031 271.007812 C 476.445312 275.394531 465.160156 286.824219 465.160156 286.824219 L 457.589844 279.132812 C 457.589844 279.132812 474.027344 262.316406 479.933594 260.46875 C 484.746094 258.960938 493.027344 268.046875 493.027344 268.046875 C 493.027344 268.046875 493.023438 268.046875 493.019531 268.046875 Z M 493.820312 326.609375 L 494.445312 330.132812 L 481.371094 323.941406 L 491.523438 313.632812 L 492.105469 316.917969 L 506.390625 313.730469 C 505.351562 306.765625 501.09375 291.269531 501.09375 291.269531 L 511.539062 288.554688 C 511.539062 288.554688 517.878906 311.207031 516.523438 317.246094 C 515.421875 322.167969 503.417969 324.800781 503.417969 324.800781 C 503.417969 324.800781 503.421875 324.796875 503.421875 324.796875 Z M 448.066406 305.414062 L 451.296875 296.1875 L 447.933594 294.96875 L 459.832031 286.734375 L 463.679688 300.6875 L 460.546875 299.546875 L 456.160156 313.519531 C 462.710938 316.097656 478.253906 320.160156 478.253906 320.160156 L 475.378906 330.5625 C 475.378906 330.5625 452.601562 324.730469 448.050781 320.539062 C 444.339844 317.121094 448.0625 305.40625 448.0625 305.40625 C 448.0625 305.40625 448.066406 305.410156 448.066406 305.414062 Z M 448.066406 305.414062 " fill-opacity="1" fill-rule="evenodd"/></svg>