<svg xmlns="http://www.w3.org/2000/svg" xmlns:xlink="http://www.w3.org/1999/xlink" width="120" zoomAndPan="magnify" viewBox="0 0 90 44.999999" height="60" preserveAspectRatio="xMidYMid meet" version="1.0"><defs><g/><clipPath id="2dd9365c65"><path d="M 0 3.5 L 41.117188 3.5 L 41.117188 38.125 L 0 38.125 Z M 0 3.5 " clip-rule="nonzero"/></clipPath><clipPath id="92fe9838a4"><path d="M 41 9 L 87.839844 9 L 87.839844 37 L 41 37 Z M 41 9 " clip-rule="nonzero"/></clipPath><clipPath id="ef89bea026"><path d="M 38 9 L 46.839844 9 L 46.839844 21 L 38 21 Z M 38 9 " clip-rule="nonzero"/></clipPath><clipPath id="118be28921"><rect x="0" width="47" y="0" height="28"/></clipPath><clipPath id="820ba47180"><rect x="0" width="88" y="0" height="42"/></clipPath></defs><g transform="matrix(1, 0, 0, 1, 0, 1)"><g clip-path="url(#820ba47180)"><g clip-path="url(#2dd9365c65)"><path fill="#143817" d="M 27.132812 37.617188 L 27.191406 37.769531 C 27.226562 37.871094 27.171875 37.976562 27.070312 38.003906 C 26.886719 38.050781 26.699219 38.03125 26.511719 37.945312 C 25.6875 37.558594 24.980469 37.0625 24.390625 36.460938 C 24.304688 36.375 24.191406 36.328125 24.070312 36.328125 C 23.339844 36.332031 23.082031 36.765625 22.722656 37.382812 C 22.636719 37.523438 22.457031 37.566406 22.328125 37.476562 C 22.246094 37.417969 22.1875 37.339844 22.15625 37.238281 C 22.121094 37.117188 21.984375 37.054688 21.867188 37.109375 C 20.589844 37.675781 19.65625 38.253906 18.511719 38.09375 C 18.417969 38.082031 18.390625 37.960938 18.464844 37.90625 C 19.085938 37.449219 19.796875 37.125 20.585938 36.941406 C 20.769531 36.898438 21.050781 36.757812 21.195312 36.621094 C 21.257812 36.5625 21.226562 36.457031 21.140625 36.445312 C 19.566406 36.230469 17.910156 36.265625 16.3125 36.054688 C 16.035156 36.019531 15.777344 35.929688 15.550781 35.789062 C 15.410156 35.703125 15.394531 35.503906 15.515625 35.394531 C 15.800781 35.136719 16.132812 35.027344 16.527344 35.152344 C 16.878906 35.265625 17.519531 35.382812 17.921875 35.410156 C 19.527344 35.507812 21.089844 35.542969 22.597656 35.515625 C 22.886719 35.511719 23.125 35.476562 23.308594 35.410156 C 23.4375 35.367188 23.496094 35.222656 23.4375 35.101562 C 23.304688 34.820312 23.105469 34.53125 22.839844 34.230469 C 21.558594 32.792969 20.308594 31.546875 18.683594 30.683594 C 18.65625 30.671875 18.628906 30.652344 18.609375 30.625 L 17.660156 29.601562 C 17.554688 29.484375 17.386719 29.441406 17.234375 29.484375 C 16.25 29.773438 15.414062 30.257812 14.449219 30.535156 C 13.726562 30.738281 12.933594 31.0625 12.082031 31.5 C 10.449219 32.339844 8.746094 33.355469 6.976562 34.554688 C 6.359375 34.972656 5.273438 35.574219 4.765625 35.859375 C 4.0625 36.253906 3.382812 36.527344 2.734375 36.679688 C 2.566406 36.71875 2.410156 36.582031 2.429688 36.410156 C 2.449219 36.234375 2.542969 36.074219 2.710938 35.925781 C 2.75 35.890625 2.722656 35.824219 2.671875 35.828125 L 0.0859375 35.953125 C 0.0273438 35.957031 -0.0078125 35.890625 0.0273438 35.84375 C 0.351562 35.425781 0.671875 35.105469 0.988281 34.882812 C 3.003906 33.464844 5.28125 31.78125 7.816406 29.835938 C 8.574219 29.253906 9.242188 28.609375 9.917969 28.015625 C 9.949219 27.984375 9.917969 27.929688 9.875 27.945312 L 6.003906 29.375 C 5.949219 29.394531 5.90625 29.328125 5.945312 29.289062 C 6.46875 28.703125 6.980469 28.222656 7.6875 27.640625 C 10.746094 25.117188 12.429688 23.734375 14.464844 21.46875 C 15.433594 20.390625 16.238281 19.519531 16.882812 18.855469 C 17.050781 18.679688 18.183594 17.445312 20.277344 15.152344 C 21.304688 14.03125 22.515625 12.941406 23.914062 11.882812 C 25.179688 10.917969 25.964844 9.992188 26.609375 8.785156 C 26.980469 8.085938 27.359375 7.128906 27.871094 6.40625 C 28.828125 5.058594 30.113281 4.167969 31.730469 3.730469 C 33.359375 3.292969 35.09375 3.441406 36.480469 4.453125 C 37.089844 4.898438 37.589844 5.664062 38.015625 6.351562 C 38.058594 6.414062 38.128906 6.453125 38.203125 6.453125 C 39.238281 6.453125 40.207031 6.488281 41.085938 6.914062 C 41.179688 6.960938 41.167969 7.09375 41.074219 7.128906 C 39.914062 7.519531 39.089844 7.808594 38.597656 7.992188 C 37.347656 8.457031 37.132812 10.574219 37.273438 11.679688 C 37.378906 12.511719 37.601562 13.453125 37.628906 14.277344 C 37.738281 17.332031 36.664062 20.46875 35.128906 23.265625 C 33.574219 26.089844 31.363281 28.632812 28.324219 29.722656 C 27.660156 29.960938 27.1875 30.171875 26.90625 30.34375 C 26.855469 30.375 26.839844 30.4375 26.871094 30.484375 C 27.535156 31.523438 28.28125 32.519531 29.117188 33.46875 C 29.617188 34.035156 30.269531 34.644531 31.042969 34.75 C 31.300781 34.785156 31.664062 34.820312 32.132812 34.855469 C 32.25 34.867188 32.363281 34.898438 32.46875 34.945312 C 32.902344 35.152344 33.386719 35.238281 33.917969 35.203125 C 35.113281 35.125 35.894531 35.082031 36.261719 35.070312 C 36.953125 35.046875 37.445312 35.304688 37.742188 35.835938 C 37.796875 35.9375 37.722656 36.0625 37.609375 36.0625 L 34.660156 36.066406 C 34.632812 36.066406 34.609375 36.070312 34.582031 36.078125 L 33.773438 36.28125 C 33.738281 36.289062 33.714844 36.320312 33.710938 36.355469 C 33.703125 36.699219 33.503906 36.925781 33.121094 37.039062 C 33.054688 37.058594 32.984375 37.039062 32.9375 36.992188 C 32.515625 36.554688 32.308594 36.371094 31.652344 36.214844 C 31.585938 36.199219 31.519531 36.257812 31.527344 36.328125 C 31.550781 36.527344 31.46875 36.652344 31.285156 36.699219 C 30.914062 36.796875 30.429688 36.476562 30.097656 36.242188 C 29.957031 36.144531 29.789062 36.097656 29.621094 36.105469 L 27.644531 36.199219 C 27.535156 36.203125 27.492188 36.347656 27.582031 36.410156 C 28.140625 36.800781 28.417969 37.355469 28.421875 38.078125 C 28.421875 38.164062 28.347656 38.234375 28.257812 38.230469 C 27.875 38.210938 27.5 37.796875 27.191406 37.570312 C 27.160156 37.550781 27.121094 37.578125 27.132812 37.617188 Z M 28.648438 34.585938 C 28.621094 34.316406 28.519531 34.054688 28.34375 33.800781 C 27.375 32.417969 26.117188 31.015625 24.671875 30.058594 C 24.613281 30.019531 24.546875 29.992188 24.480469 29.984375 C 24.027344 29.933594 23.507812 29.90625 22.914062 29.910156 C 22.292969 29.914062 21.820312 30.257812 21.5 30.9375 C 21.445312 31.050781 21.453125 31.1875 21.523438 31.296875 C 22.03125 32.128906 22.84375 32.851562 23.800781 33.796875 C 24.199219 34.191406 24.652344 34.476562 25.15625 34.644531 C 25.171875 34.652344 25.183594 34.652344 25.199219 34.65625 L 26.367188 34.824219 C 26.460938 34.835938 26.542969 34.871094 26.617188 34.925781 L 27.027344 35.226562 C 27.058594 35.253906 27.101562 35.265625 27.144531 35.257812 L 27.832031 35.140625 C 27.882812 35.132812 27.921875 35.089844 27.921875 35.039062 C 27.925781 34.992188 27.929688 34.953125 27.933594 34.921875 C 27.949219 34.832031 28.015625 34.761719 28.105469 34.746094 L 28.589844 34.664062 C 28.628906 34.65625 28.652344 34.625 28.648438 34.585938 Z M 28.648438 34.585938 " fill-opacity="1" fill-rule="nonzero"/></g><g clip-path="url(#92fe9838a4)"><g transform="matrix(1, 0, 0, 1, 41, 9)"><g clip-path="url(#118be28921)"><g fill="#000000" fill-opacity="1"><g transform="translate(0.142252, 20.58864)"><g><path d="M 5.6875 -5.328125 L 10.609375 0 L 7.625 0 L 3.671875 -4.59375 L 3.671875 0 L 1.453125 0 L 1.453125 -14.34375 L 3.671875 -14.34375 L 3.671875 -6.015625 L 7.546875 -10.6875 L 10.609375 -10.6875 Z M 5.6875 -5.328125 "/></g></g></g><g fill="#000000" fill-opacity="1"><g transform="translate(9.9132, 20.58864)"><g><path d="M 11.25 -5.609375 C 11.25 -5.203125 11.222656 -4.835938 11.171875 -4.515625 L 3 -4.515625 C 3.070312 -3.660156 3.390625 -2.972656 3.953125 -2.453125 C 4.523438 -1.941406 5.222656 -1.6875 6.046875 -1.6875 C 7.234375 -1.6875 8.078125 -2.1875 8.578125 -3.1875 L 10.953125 -3.1875 C 10.628906 -2.195312 10.046875 -1.390625 9.203125 -0.765625 C 8.359375 -0.140625 7.304688 0.171875 6.046875 0.171875 C 5.023438 0.171875 4.109375 -0.0546875 3.296875 -0.515625 C 2.492188 -0.972656 1.863281 -1.617188 1.40625 -2.453125 C 0.945312 -3.285156 0.71875 -4.253906 0.71875 -5.359375 C 0.71875 -6.453125 0.941406 -7.414062 1.390625 -8.25 C 1.835938 -9.082031 2.460938 -9.722656 3.265625 -10.171875 C 4.078125 -10.628906 5.003906 -10.859375 6.046875 -10.859375 C 7.054688 -10.859375 7.953125 -10.640625 8.734375 -10.203125 C 9.523438 -9.765625 10.140625 -9.144531 10.578125 -8.34375 C 11.023438 -7.550781 11.25 -6.640625 11.25 -5.609375 Z M 8.9375 -6.296875 C 8.925781 -7.117188 8.632812 -7.773438 8.0625 -8.265625 C 7.5 -8.753906 6.796875 -9 5.953125 -9 C 5.191406 -9 4.539062 -8.753906 4 -8.265625 C 3.457031 -7.785156 3.132812 -7.128906 3.03125 -6.296875 Z M 8.9375 -6.296875 "/></g></g></g><g fill="#000000" fill-opacity="1"><g transform="translate(20.905515, 20.58864)"><g><path d="M 0.71875 -5.390625 C 0.71875 -6.460938 0.941406 -7.410156 1.390625 -8.234375 C 1.835938 -9.066406 2.441406 -9.710938 3.203125 -10.171875 C 3.972656 -10.628906 4.832031 -10.859375 5.78125 -10.859375 C 6.476562 -10.859375 7.164062 -10.707031 7.84375 -10.40625 C 8.519531 -10.101562 9.0625 -9.695312 9.46875 -9.1875 L 9.46875 -14.34375 L 11.6875 -14.34375 L 11.6875 0 L 9.46875 0 L 9.46875 -1.609375 C 9.101562 -1.085938 8.597656 -0.660156 7.953125 -0.328125 C 7.316406 0.00390625 6.585938 0.171875 5.765625 0.171875 C 4.828125 0.171875 3.972656 -0.0625 3.203125 -0.53125 C 2.441406 -1 1.835938 -1.65625 1.390625 -2.5 C 0.941406 -3.351562 0.71875 -4.316406 0.71875 -5.390625 Z M 9.46875 -5.359375 C 9.46875 -6.085938 9.3125 -6.722656 9 -7.265625 C 8.695312 -7.804688 8.300781 -8.21875 7.8125 -8.5 C 7.320312 -8.789062 6.789062 -8.9375 6.21875 -8.9375 C 5.65625 -8.9375 5.125 -8.796875 4.625 -8.515625 C 4.132812 -8.242188 3.738281 -7.835938 3.4375 -7.296875 C 3.132812 -6.765625 2.984375 -6.128906 2.984375 -5.390625 C 2.984375 -4.648438 3.132812 -4.003906 3.4375 -3.453125 C 3.738281 -2.898438 4.140625 -2.476562 4.640625 -2.1875 C 5.140625 -1.894531 5.664062 -1.75 6.21875 -1.75 C 6.789062 -1.75 7.320312 -1.890625 7.8125 -2.171875 C 8.300781 -2.453125 8.695312 -2.867188 9 -3.421875 C 9.3125 -3.972656 9.46875 -4.617188 9.46875 -5.359375 Z M 9.46875 -5.359375 "/></g></g></g><g fill="#000000" fill-opacity="1"><g transform="translate(33.080424, 20.58864)"><g><path d="M 2.578125 -12.09375 C 2.179688 -12.09375 1.84375 -12.226562 1.5625 -12.5 C 1.289062 -12.78125 1.15625 -13.117188 1.15625 -13.515625 C 1.15625 -13.910156 1.289062 -14.242188 1.5625 -14.515625 C 1.84375 -14.796875 2.179688 -14.9375 2.578125 -14.9375 C 2.960938 -14.9375 3.289062 -14.796875 3.5625 -14.515625 C 3.832031 -14.242188 3.96875 -13.910156 3.96875 -13.515625 C 3.96875 -13.117188 3.832031 -12.78125 3.5625 -12.5 C 3.289062 -12.226562 2.960938 -12.09375 2.578125 -12.09375 Z M 3.671875 -10.6875 L 3.671875 0 L 1.453125 0 L 1.453125 -10.6875 Z M 3.671875 -10.6875 "/></g></g></g><g clip-path="url(#ef89bea026)"><g fill="#000000" fill-opacity="1"><g transform="translate(37.2292, 20.58864)"><g><path d="M 5.328125 0.171875 C 4.492188 0.171875 3.742188 0.0195312 3.078125 -0.28125 C 2.410156 -0.582031 1.878906 -0.992188 1.484375 -1.515625 C 1.097656 -2.046875 0.894531 -2.632812 0.875 -3.28125 L 3.15625 -3.28125 C 3.195312 -2.820312 3.414062 -2.441406 3.8125 -2.140625 C 4.207031 -1.835938 4.703125 -1.6875 5.296875 -1.6875 C 5.910156 -1.6875 6.390625 -1.804688 6.734375 -2.046875 C 7.078125 -2.285156 7.25 -2.59375 7.25 -2.96875 C 7.25 -3.363281 7.054688 -3.660156 6.671875 -3.859375 C 6.296875 -4.054688 5.691406 -4.269531 4.859375 -4.5 C 4.066406 -4.71875 3.414062 -4.929688 2.90625 -5.140625 C 2.40625 -5.347656 1.96875 -5.664062 1.59375 -6.09375 C 1.226562 -6.519531 1.046875 -7.082031 1.046875 -7.78125 C 1.046875 -8.34375 1.210938 -8.859375 1.546875 -9.328125 C 1.890625 -9.804688 2.375 -10.179688 3 -10.453125 C 3.625 -10.722656 4.34375 -10.859375 5.15625 -10.859375 C 6.375 -10.859375 7.351562 -10.550781 8.09375 -9.9375 C 8.832031 -9.320312 9.226562 -8.484375 9.28125 -7.421875 L 7.078125 -7.421875 C 7.035156 -7.898438 6.835938 -8.28125 6.484375 -8.5625 C 6.140625 -8.851562 5.671875 -9 5.078125 -9 C 4.492188 -9 4.046875 -8.890625 3.734375 -8.671875 C 3.429688 -8.453125 3.28125 -8.160156 3.28125 -7.796875 C 3.28125 -7.515625 3.378906 -7.273438 3.578125 -7.078125 C 3.785156 -6.878906 4.039062 -6.722656 4.34375 -6.609375 C 4.644531 -6.503906 5.082031 -6.367188 5.65625 -6.203125 C 6.4375 -5.992188 7.070312 -5.78125 7.5625 -5.5625 C 8.0625 -5.351562 8.492188 -5.039062 8.859375 -4.625 C 9.222656 -4.21875 9.410156 -3.671875 9.421875 -2.984375 C 9.421875 -2.378906 9.253906 -1.835938 8.921875 -1.359375 C 8.585938 -0.878906 8.113281 -0.503906 7.5 -0.234375 C 6.882812 0.0351562 6.160156 0.171875 5.328125 0.171875 Z M 5.328125 0.171875 "/></g></g></g></g></g></g></g></g></g></svg>